<?xml version="1.0" standalone="no"?>
<!DOCTYPE svg PUBLIC "-//W3C//DTD SVG 20010904//EN"
 "http://www.w3.org/TR/2001/REC-SVG-20010904/DTD/svg10.dtd">
<svg version="1.0" xmlns="http://www.w3.org/2000/svg"
 width="1223.000000pt" height="1223.000000pt" viewBox="0 0 1223.000000 1223.000000"
 preserveAspectRatio="xMidYMid meet">
<metadata>
Created by potrace 1.14, written by Peter Selinger 2001-2017
</metadata>
<g transform="translate(0.000000,1223.000000) scale(0.100000,-0.100000)"
fill="#000000" stroke="none">
<path d="M0 6115 l0 -6115 6115 0 6115 0 0 2369 c0 1561 -4 2372 -10 2376 -6
3 -10 11 -10 16 0 6 5 7 10 4 7 -4 10 530 10 1594 0 1061 -3 1601 -10 1601 -5
0 -10 5 -10 11 0 5 5 7 10 4 7 -4 10 133 10 404 0 257 -4 411 -10 411 -12 0
-34 40 -26 47 3 3 12 0 21 -7 13 -11 15 2 15 119 0 81 -4 131 -10 131 -5 0
-10 5 -10 11 0 5 5 7 10 4 15 -9 13 358 -2 373 -9 9 -9 12 0 12 10 0 12 37 9
163 -2 89 -7 175 -12 191 -6 21 -5 27 3 22 17 -11 17 1071 0 1092 -10 13 -10
14 0 8 9 -6 12 124 12 633 l0 641 -1160 0 c-1100 0 -1159 -1 -1154 -17 5 -17
5 -17 -6 0 -8 12 -24 17 -55 17 -38 0 -45 -3 -45 -19 0 -11 5 -23 10 -26 5 -3
10 -13 10 -22 0 -26 -27 3 -34 37 l-5 30 -1048 0 -1048 0 98 -43 c53 -24 105
-52 115 -63 10 -10 30 -28 44 -38 16 -12 24 -25 20 -34 -4 -12 -1 -14 12 -9
14 6 16 3 11 -13 -5 -16 -3 -19 10 -14 11 5 15 14 11 28 -18 64 -19 69 -7 62
26 -16 52 -87 49 -134 l-3 -47 -23 40 c-14 25 -20 30 -16 15 14 -47 10 -155
-8 -230 -9 -41 -17 -87 -18 -101 0 -15 -15 -49 -33 -75 -18 -27 -41 -67 -52
-89 -35 -68 -64 -108 -100 -132 -36 -24 -57 -57 -69 -106 -4 -16 -18 -46 -31
-68 -14 -21 -25 -43 -25 -49 0 -5 -5 -10 -12 -10 -6 0 -8 -3 -5 -7 4 -3 2 -12
-3 -19 -18 -21 -35 -191 -22 -217 6 -12 14 -33 17 -47 20 -72 72 -143 83 -111
7 20 20 12 41 -25 25 -42 28 -62 6 -44 -12 10 -16 9 -21 -5 -8 -21 7 -49 27
-51 8 -1 19 -2 26 -3 6 0 13 -8 15 -17 2 -11 16 -17 41 -20 l37 -3 -15 29
c-14 27 -14 30 0 30 9 0 18 -12 22 -30 3 -17 9 -33 13 -35 18 -11 96 -5 118 9
7 4 78 10 159 13 230 8 358 -14 506 -89 13 -6 24 -5 35 4 14 11 15 10 9 -5 -5
-13 -3 -17 5 -14 7 2 12 10 10 16 -3 15 10 14 34 -4 18 -14 18 -14 -6 -15 -23
-1 -24 -1 -6 -12 15 -8 21 -7 28 6 10 17 38 22 38 7 0 -10 19 -9 38 2 8 5 12
2 12 -8 0 -8 6 -18 14 -21 8 -3 12 -12 9 -20 -3 -9 1 -14 12 -14 10 0 23 -7
29 -15 9 -13 13 -11 23 10 10 23 9 25 -15 25 -25 0 -25 1 -6 14 10 8 21 10 22
5 2 -5 10 -9 17 -9 7 0 15 -6 18 -13 2 -7 18 -13 33 -15 16 -1 34 -8 39 -16 9
-11 12 -11 24 1 14 16 37 12 33 -6 -1 -6 11 -11 27 -11 16 0 31 -6 35 -15 3
-8 10 -15 17 -15 6 0 9 6 6 13 -4 10 2 13 19 9 13 -2 24 -9 24 -14 0 -6 7 -7
15 -4 10 3 19 -1 23 -12 4 -9 13 -17 20 -18 6 -1 21 -2 33 -2 11 -1 17 -7 14
-12 -3 -6 2 -18 11 -28 17 -16 18 -16 11 1 -3 9 -2 17 3 17 17 0 50 -39 50
-60 0 -22 20 -26 37 -9 9 9 21 8 47 -5 20 -9 36 -21 36 -26 0 -6 3 -9 8 -8 14
3 47 -15 87 -47 22 -17 49 -35 60 -39 14 -5 16 -9 7 -15 -10 -6 -10 -11 3 -21
13 -11 15 -10 9 4 -3 9 -3 16 1 16 11 0 77 -56 141 -118 30 -29 59 -50 64 -47
6 3 10 -3 10 -14 0 -12 3 -20 8 -19 8 3 82 -66 82 -76 0 -3 -8 -6 -17 -7 -14
0 -13 -2 5 -9 12 -5 22 -14 22 -19 0 -6 7 -8 16 -4 22 8 60 -36 57 -67 -2 -20
-1 -21 5 -7 7 16 10 16 32 -10 65 -74 110 -132 110 -141 0 -5 6 -12 13 -15 7
-2 22 -23 32 -46 11 -22 23 -41 28 -41 4 0 7 -7 7 -15 0 -8 4 -15 9 -15 5 0
12 -8 15 -17 7 -21 27 -55 43 -74 23 -30 91 -174 98 -209 2 -13 9 -26 13 -29
14 -9 54 -102 48 -109 -3 -3 -2 -10 3 -16 17 -20 52 -120 63 -176 5 -30 13
-59 18 -65 10 -14 29 -121 34 -200 4 -52 -2 -69 -19 -55 -10 8 -11 2 -5 -30 4
-22 3 -40 -1 -40 -5 0 -9 -18 -9 -40 0 -22 -5 -40 -11 -40 -6 0 -8 8 -4 19 5
18 -20 49 -31 38 -12 -12 7 -59 26 -64 21 -5 28 -23 10 -23 -5 0 -10 -4 -10
-10 0 -5 7 -10 15 -10 8 0 15 -5 15 -11 0 -8 5 -8 15 1 8 7 12 16 10 21 -3 4
3 7 13 6 13 -1 19 -9 19 -29 0 -15 -4 -28 -9 -28 -5 0 -6 5 -3 10 3 6 -1 10
-9 10 -9 0 -16 -5 -16 -12 0 -6 -3 -8 -7 -5 -7 8 -43 -21 -43 -35 0 -4 7 -8
15 -8 14 0 13 -3 -2 -25 -20 -27 -43 -33 -43 -10 0 8 8 15 18 15 16 1 16 1 0
11 -11 6 -15 16 -11 26 4 10 2 14 -4 10 -13 -8 -27 8 -41 48 -6 17 -11 22 -11
13 -1 -19 17 -101 29 -133 22 -57 29 -85 35 -140 3 -33 16 -94 27 -135 18 -64
21 -99 20 -240 -2 -91 -5 -173 -8 -183 -6 -21 -8 -32 -19 -122 -4 -33 -11 -64
-15 -70 -4 -5 -15 -41 -25 -80 -10 -38 -21 -74 -25 -80 -23 -33 -18 -57 18
-91 33 -31 34 -34 14 -34 -12 0 -29 11 -38 26 l-17 25 -68 -135 c-37 -75 -77
-149 -88 -165 -12 -16 -21 -31 -21 -34 0 -2 -20 -35 -45 -72 -44 -67 -51 -91
-20 -65 13 11 15 8 15 -19 0 -24 6 -34 30 -46 25 -13 30 -22 30 -51 0 -19 5
-44 10 -55 9 -16 7 -19 -12 -16 -35 3 -29 -25 15 -72 37 -40 65 -101 47 -101
-5 0 -12 5 -15 10 -13 21 -33 9 -38 -22 -8 -50 16 -80 60 -76 32 3 36 0 48
-34 7 -21 10 -48 8 -62 -3 -14 9 -73 25 -133 41 -142 51 -209 58 -383 3 -87
11 -157 19 -175 16 -35 22 -119 11 -152 -4 -12 -2 -24 4 -28 5 -3 10 -23 10
-44 0 -21 7 -52 15 -69 19 -38 22 -132 6 -190 -11 -38 -10 -47 3 -61 11 -12
16 -38 16 -82 0 -36 5 -70 12 -77 8 -8 5 -14 -15 -23 -15 -7 -27 -15 -27 -18
0 -4 -14 -22 -31 -40 -30 -33 -30 -36 -26 -115 4 -88 40 -235 60 -248 9 -6 9
-10 -1 -16 -21 -14 -33 -73 -38 -185 -3 -78 -8 -112 -18 -123 -9 -8 -19 -13
-23 -12 -4 2 -12 -26 -17 -61 -5 -40 -15 -70 -27 -82 -10 -10 -19 -30 -19 -43
0 -16 -7 -27 -20 -31 -29 -9 -47 -42 -60 -105 -12 -58 -36 -117 -54 -135 -6
-7 -22 -26 -36 -44 -14 -18 -35 -46 -48 -61 -13 -16 -30 -51 -39 -77 -9 -26
-25 -61 -35 -78 -10 -16 -18 -45 -18 -62 0 -24 -5 -33 -17 -35 -10 -1 -25 -2
-33 -4 -8 -1 -23 -2 -32 -3 -23 -1 -50 -31 -44 -47 3 -7 -2 -27 -11 -44 -8
-17 -13 -42 -11 -55 4 -20 0 -25 -26 -31 -17 -4 -45 -17 -62 -30 -34 -26 -64
-31 -64 -11 -1 6 -8 -1 -16 -16 -9 -16 -13 -35 -10 -42 2 -7 -2 -16 -10 -19
-8 -3 -12 -2 -9 3 9 15 -33 24 -80 16 -33 -4 -43 -10 -38 -21 3 -8 -2 -26 -12
-40 -11 -18 -13 -29 -6 -38 7 -8 5 -12 -10 -13 -13 -1 -19 4 -17 14 6 32 -18
22 -45 -19 -15 -24 -44 -65 -63 -93 -53 -74 -67 -110 -52 -135 10 -15 10 -22
0 -32 -6 -6 -12 -20 -12 -30 0 -11 -7 -18 -20 -18 -11 0 -20 -6 -20 -12 0 -10
-2 -10 -8 0 -9 14 -26 -2 -77 -73 -16 -22 -32 -42 -35 -45 -3 -3 -16 -21 -28
-41 -21 -34 -47 -70 -112 -149 -92 -112 -124 -157 -158 -218 -24 -45 -72 -103
-147 -178 -60 -61 -141 -147 -180 -190 -38 -42 -96 -97 -129 -121 -32 -24 -74
-64 -94 -90 -19 -27 -83 -93 -141 -149 -58 -56 -116 -112 -129 -125 -12 -13
-76 -80 -142 -148 -115 -119 -146 -165 -121 -180 19 -12 -65 -52 -116 -55 -26
-1 -59 4 -74 11 -15 8 -40 12 -56 9 -15 -2 -36 -5 -46 -5 -10 -1 -15 -6 -12
-11 3 -6 -5 -10 -18 -10 -14 0 -27 -7 -31 -15 -3 -8 -14 -15 -24 -15 -10 0
-34 -15 -54 -33 -20 -18 -54 -42 -77 -52 -22 -11 -41 -23 -41 -26 0 -4 -11
-10 -25 -13 -13 -3 -35 -16 -48 -29 -27 -24 -103 -67 -120 -67 -6 0 -18 -7
-27 -15 -13 -11 -24 -13 -50 -5 -40 11 -48 7 -29 -16 13 -16 11 -17 -16 -9
-16 4 -37 7 -45 6 -8 -1 -23 -1 -32 -2 -10 0 -18 -4 -18 -8 0 -4 -6 -8 -12 -9
-29 -2 -152 -42 -157 -51 -3 -5 -17 -9 -31 -9 -14 0 -43 -5 -65 -11 -23 -5
-74 -11 -115 -13 -41 -1 -79 -5 -85 -9 -17 -11 -126 -22 -225 -21 -183 1 -396
1 -485 0 -113 -2 -175 7 -228 32 -23 11 -58 22 -77 24 -19 3 -36 6 -37 7 -2 1
-6 2 -10 4 -5 1 -15 4 -23 8 -8 3 -42 13 -75 23 -33 9 -115 44 -182 76 -66 32
-127 58 -135 58 -7 0 -25 8 -38 17 -14 10 -31 19 -40 20 -14 2 -61 24 -70 33
-3 3 -18 12 -35 20 -16 8 -36 23 -43 33 -7 9 -17 15 -22 12 -5 -3 -26 12 -47
32 -20 21 -41 37 -45 35 -4 -1 -8 3 -8 10 0 6 -3 8 -6 5 -4 -4 -15 3 -25 14
-10 12 -23 18 -30 13 -7 -4 -9 -3 -6 3 9 15 -41 46 -61 38 -9 -3 -13 -3 -10 1
4 3 -7 19 -25 35 -20 18 -33 25 -38 18 -6 -10 -51 28 -180 156 -19 19 -41 35
-47 35 -7 0 -12 4 -12 8 0 5 -19 18 -42 28 -24 10 -63 38 -88 60 -139 127
-181 164 -239 209 -70 53 -100 82 -176 168 -27 30 -53 53 -57 51 -4 -3 -5 2
-2 11 4 10 2 15 -7 13 -8 -2 -13 5 -13 15 1 10 0 16 -3 13 -3 -3 -33 49 -66
115 -52 102 -73 133 -141 202 -45 45 -121 114 -171 152 -79 61 -94 79 -125
140 -19 39 -99 164 -177 278 -91 131 -143 216 -143 232 0 14 -6 25 -14 25 -13
0 -66 107 -66 134 0 7 -9 31 -20 54 -11 22 -20 46 -20 51 0 5 -16 45 -36 88
-57 125 -81 198 -79 242 1 24 -3 45 -10 49 -25 14 -37 103 -26 190 6 45 8 88
6 94 -3 7 -9 50 -14 96 -8 73 -15 94 -64 180 l-54 98 0 120 c-1 65 -6 164 -12
219 -10 88 -9 118 9 245 11 80 27 179 35 220 8 41 17 98 20 125 6 49 24 141
43 220 6 22 10 70 10 107 0 48 5 72 16 84 9 8 16 24 16 35 0 11 9 39 20 61 11
23 20 48 20 55 0 7 5 13 10 13 6 0 10 7 10 17 0 19 47 103 58 103 4 0 13 14
21 31 10 23 16 28 22 18 7 -11 9 -9 10 6 1 11 1 26 0 34 -2 7 3 10 9 6 6 -4
17 9 26 32 9 21 23 42 30 46 8 5 12 12 9 18 -4 5 -1 9 5 9 6 0 16 12 23 28 7
15 32 60 56 101 25 40 45 80 46 90 3 38 88 102 108 82 6 -6 21 -11 34 -11 13
0 23 -4 23 -10 0 -13 12 -13 45 0 23 9 25 13 15 25 -20 24 -4 17 26 -10 21
-20 38 -25 75 -25 27 0 49 5 49 10 0 6 -10 10 -22 10 -12 0 -65 24 -117 54
-59 32 -113 56 -140 59 -24 3 -69 18 -100 34 -52 27 -59 35 -97 111 -46 91
-124 314 -124 352 0 41 26 5 56 -80 15 -41 35 -90 46 -108 10 -18 18 -37 18
-43 0 -19 73 -164 88 -175 9 -6 38 -19 65 -29 40 -14 51 -15 57 -5 7 11 12 10
25 -3 9 -10 25 -17 36 -17 10 0 19 -4 19 -10 0 -14 27 -12 33 3 3 6 6 2 6 -10
1 -13 6 -23 12 -23 6 0 9 9 6 20 -3 11 -2 22 3 25 10 6 22 -24 14 -36 -9 -16
16 -39 42 -39 13 0 24 -6 25 -12 0 -7 5 -2 11 12 6 14 10 33 9 43 -1 10 4 17
15 17 11 0 15 -6 11 -19 -7 -30 7 -45 26 -27 20 20 28 20 21 1 -4 -8 -2 -15 3
-15 16 0 32 22 26 38 -4 8 2 21 12 28 16 12 17 18 7 39 -7 14 -12 28 -12 30 0
6 32 -7 130 -52 144 -67 151 -69 162 -50 5 9 16 17 25 17 35 0 149 34 175 51
14 11 30 19 34 19 4 0 15 6 23 13 9 8 32 20 51 27 40 16 140 97 140 113 0 28
90 186 129 227 55 57 77 101 86 170 8 71 32 120 71 145 27 17 74 95 74 122 0
5 9 15 20 23 11 8 20 20 20 27 0 7 7 13 15 13 8 0 20 9 27 20 7 11 18 20 25
20 7 0 18 9 25 20 7 11 20 20 29 20 8 0 26 11 39 25 13 14 20 25 15 25 -5 0 1
10 13 22 18 20 19 25 6 42 -11 15 -11 22 -2 27 9 6 7 10 -7 15 -11 5 -29 16
-39 26 -24 22 -46 23 -46 3 0 -8 -4 -15 -9 -15 -13 0 -20 25 -14 48 6 24 -15
40 -23 18 -8 -22 -21 -20 -29 3 -4 12 -12 18 -21 14 -22 -8 -42 14 -36 42 2
15 0 25 -7 25 -6 0 -11 6 -11 14 0 19 -14 28 -34 20 -14 -5 -14 -9 -2 -26 8
-11 12 -27 9 -34 -3 -8 0 -14 6 -14 14 0 33 -38 26 -51 -9 -14 -55 37 -55 61
0 10 -5 22 -10 25 -6 4 -8 15 -5 26 4 12 1 21 -9 25 -9 3 -12 12 -8 22 5 14 4
14 -9 3 -21 -20 -22 -79 -1 -84 12 -3 11 -5 -5 -6 -16 -1 -25 -10 -32 -33 -5
-18 -10 -27 -10 -20 -1 6 -10 12 -21 12 -19 0 -20 1 -4 24 8 14 15 35 14 48
-4 44 0 56 21 61 14 4 19 12 17 24 -4 21 -37 19 -54 -3 -8 -10 -21 -12 -43 -8
-39 8 -46 18 -25 38 14 14 17 14 30 1 17 -17 40 -20 48 -6 5 8 -36 23 -67 25
-5 1 -16 11 -25 23 -15 19 -19 20 -35 9 -15 -12 -16 -16 -3 -41 8 -15 20 -31
27 -35 8 -6 9 -25 4 -65 l-7 -57 -14 28 c-12 22 -12 29 -2 35 10 7 10 13 1 26
-6 10 -16 17 -21 16 -6 -1 -20 18 -32 42 -12 25 -27 45 -34 45 -17 0 -50 37
-38 43 4 3 23 -3 41 -14 34 -21 60 -17 41 6 -6 7 -20 11 -30 8 -20 -5 -24 3
-21 39 1 9 -3 19 -9 23 -14 9 -90 -73 -84 -90 6 -14 -22 -29 -30 -16 -8 12 17
61 32 61 18 0 15 11 -10 38 l-23 24 26 -7 c16 -4 30 -2 33 4 4 6 2 11 -3 11
-6 0 -11 7 -11 17 0 15 -2 15 -19 -1 -20 -18 -61 -14 -61 5 0 6 -5 7 -12 3 -6
-4 -17 1 -24 10 -10 15 -15 15 -32 5 -17 -10 -23 -10 -36 0 -12 10 -16 10 -16
2 0 -8 -8 -10 -20 -6 -16 5 -20 2 -20 -18 0 -20 -4 -24 -21 -20 -18 5 -19 2
-14 -23 l5 -29 -11 28 c-7 18 -7 32 -1 40 5 7 9 32 8 57 -1 39 -4 45 -23 48
-21 3 -22 1 -17 -41 7 -47 -12 -78 -23 -38 -3 12 -12 21 -20 21 -8 0 -11 5 -8
10 3 6 14 10 25 10 13 0 17 5 13 20 -6 24 -21 26 -29 5 -8 -20 -24 -9 -24 16
0 11 -7 22 -15 26 -14 5 -14 8 1 25 17 18 17 20 1 48 l-17 29 25 -5 c29 -5 35
15 6 23 -11 3 -21 13 -24 24 -12 44 -37 8 -37 -53 0 -19 4 -26 14 -22 23 9 28
-14 7 -35 -11 -11 -17 -22 -13 -25 3 -3 1 -6 -5 -6 -6 0 -13 10 -17 23 -5 18
-8 20 -16 7 -6 -10 -10 -11 -10 -2 0 6 -7 12 -15 12 -8 0 -15 5 -15 11 0 6 7
9 15 5 8 -3 15 -1 15 4 0 6 6 9 13 7 6 -1 11 4 9 11 -1 7 -5 32 -8 55 -5 42
-27 77 -50 77 -17 0 -45 -57 -37 -77 5 -13 3 -13 -15 -4 -31 17 -40 13 -13 -6
l24 -16 -28 -14 c-29 -16 -39 -11 -50 24 -5 19 -1 25 19 33 17 6 24 14 20 25
-9 22 -35 19 -41 -5 -9 -32 -25 -18 -29 25 -2 21 -8 43 -14 49 -15 15 -12 26
5 20 9 -4 15 0 16 7 0 8 4 4 9 -8 13 -32 40 -19 40 18 0 16 -4 29 -10 29 -5 0
-10 -7 -10 -15 0 -20 -25 -9 -40 19 -8 17 -18 22 -33 18 -18 -4 -19 -2 -13 22
5 21 3 27 -6 23 -7 -2 -12 -12 -10 -21 3 -14 -1 -16 -18 -11 -11 4 -27 2 -34
-4 -16 -14 -46 -4 -46 15 0 8 6 11 15 8 29 -11 15 14 -15 28 -34 15 -41 33 -9
23 17 -6 20 -3 17 12 -2 10 -10 18 -18 18 -8 0 -19 9 -23 20 -7 16 -10 17 -17
5 -5 -8 -5 -19 -1 -25 11 -13 11 -65 1 -65 -4 0 -13 6 -19 14 -10 11 -9 16 5
24 14 8 14 10 -7 15 -13 3 -28 16 -34 29 -11 24 -32 30 -52 15 -23 -17 -15 25
9 50 l22 23 -21 19 c-30 28 -54 11 -42 -31 10 -37 8 -41 -16 -32 -13 5 -15 14
-11 35 4 22 2 29 -10 29 -11 0 -14 -9 -12 -35 2 -39 -9 -56 -23 -35 -12 19 -2
62 17 73 16 9 19 37 4 37 -6 0 -15 11 -20 25 -5 14 -14 25 -19 25 -16 0 -51
42 -44 53 3 6 8 33 10 61 l4 50 -20 -18 c-20 -18 -25 -15 -22 9 1 6 -5 2 -13
-9 -17 -21 -36 -13 -36 15 0 11 5 17 10 14 6 -3 10 0 10 8 0 8 -7 18 -16 21
-23 9 -24 8 -24 -12 0 -11 -9 -27 -20 -37 -21 -19 -28 -7 -8 13 10 10 10 17 1
31 -7 10 -9 28 -6 39 3 14 -2 24 -16 31 -19 10 -21 9 -21 -12 0 -12 5 -28 11
-34 6 -6 8 -21 4 -33 -10 -30 -20 -15 -34 53 -7 31 -17 55 -22 52 -5 -4 -9 0
-9 8 0 8 -7 20 -15 27 -8 7 -13 15 -11 19 8 13 -14 51 -30 51 -11 0 -14 5 -10
16 5 13 3 14 -7 6 -8 -7 -18 -8 -27 -1 -13 8 -13 11 3 20 9 5 17 19 17 29 0
22 -15 27 -24 8 -3 -9 -11 -6 -24 10 -14 14 -26 20 -38 15 -12 -4 -15 -3 -10
6 5 7 17 11 27 8 10 -3 22 -1 25 5 8 12 -1 20 -23 22 -63 6 -98 56 -98 141 0
51 -17 95 -36 95 -7 0 -9 -12 -4 -32 12 -56 15 -148 5 -148 -6 0 -10 7 -10 16
0 8 -5 12 -11 9 -6 -4 -8 -13 -5 -21 3 -8 -1 -14 -9 -14 -8 0 -15 6 -15 14 0
8 -5 18 -11 22 -8 5 -9 -6 -4 -37 l6 -44 -16 30 c-9 16 -14 37 -12 47 3 10 0
15 -7 12 -7 -3 -23 4 -37 14 -20 17 -21 22 -10 36 7 9 22 16 32 16 11 0 19 5
19 11 0 5 5 7 10 4 6 -3 7 -17 4 -30 -3 -12 -1 -26 5 -29 11 -7 16 18 12 59
-2 25 -24 75 -32 75 -12 0 -19 -31 -13 -57 l7 -26 -32 24 c-31 23 -43 53 -17
43 7 -3 16 2 20 11 4 11 -2 19 -19 25 -14 5 -25 18 -25 28 0 10 -5 23 -11 29
-12 12 -4 33 12 33 5 0 9 -6 9 -14 0 -16 27 -29 35 -16 3 4 2 10 -2 12 -5 1
-16 18 -26 36 -21 37 -5 44 19 7 21 -33 34 -32 33 3 -2 40 -9 63 -19 57 -4 -3
-11 6 -14 20 -9 34 -35 34 -28 0 5 -31 -15 -34 -27 -3 l-8 21 -15 -22 c-10
-14 -18 -18 -23 -12 -3 6 1 14 9 17 23 9 20 19 -13 53 l-29 30 24 16 c13 8 24
23 24 31 0 14 2 15 17 3 15 -13 16 -11 9 11 -4 14 -8 30 -8 37 -1 7 -4 10 -8
8 -8 -5 -39 28 -57 62 -7 12 -9 24 -4 27 4 3 13 -6 20 -20 8 -19 17 -25 31
-21 15 4 20 0 20 -16 0 -18 2 -19 10 -7 15 24 12 42 -8 38 -22 -3 -52 18 -52
37 0 20 -28 26 -33 7 -4 -16 -5 -16 -6 0 0 9 8 23 18 30 25 18 12 41 -20 36
-18 -2 -25 -11 -29 -38 -7 -40 -17 -60 -31 -60 -14 0 -11 20 6 36 19 19 19 63
1 89 -19 28 -29 65 -18 65 6 0 13 -12 16 -26 5 -20 10 -23 20 -15 8 7 12 20 9
29 -2 10 5 26 16 36 15 13 18 24 12 39 -5 12 -9 25 -10 30 -6 50 -31 80 -31
37 0 -11 -5 -20 -11 -20 -5 0 -7 5 -4 10 3 6 -1 13 -9 16 -18 7 -23 64 -6 64
6 0 10 -4 10 -10 0 -5 5 -10 10 -10 6 0 10 8 10 17 0 9 -3 13 -6 10 -4 -4 -21
5 -38 19 -22 19 -31 23 -35 13 -2 -7 1 -15 8 -17 6 -2 11 -8 11 -13 0 -6 -4
-8 -9 -5 -5 3 -11 0 -14 -8 -4 -9 -14 -12 -26 -9 -24 6 -26 14 -9 31 10 10 10
17 0 32 -17 27 -15 32 7 25 23 -7 39 13 17 21 -9 3 -16 13 -16 20 0 12 4 12
24 -2 14 -8 27 -23 29 -32 3 -15 5 -15 12 1 5 12 2 24 -8 34 -12 12 -13 22 -6
42 7 17 7 27 0 29 -5 2 -15 19 -21 38 -6 19 -17 34 -23 34 -8 0 -12 18 -11 50
2 69 4 78 13 55 5 -11 6 -34 4 -51 -5 -30 -4 -31 21 -27 25 5 37 23 15 23 -6
0 -9 10 -7 23 2 12 10 22 18 22 8 0 16 8 18 18 4 19 -13 23 -23 6 -13 -20 -27
-2 -30 39 -3 36 -1 41 11 31 8 -6 14 -18 14 -25 0 -8 5 -14 10 -14 6 0 10 7
10 15 0 8 6 15 13 15 7 0 17 13 23 28 9 24 7 36 -11 72 -17 33 -23 39 -28 26
-4 -10 -3 -25 2 -34 9 -19 4 -42 -10 -42 -6 0 -9 19 -9 43 1 23 -2 53 -6 66
-5 17 -4 22 4 17 8 -4 16 3 22 18 13 35 17 33 12 -6 -5 -36 12 -29 20 7 5 21
7 18 24 -32 4 -15 7 -15 14 -3 9 14 -16 70 -32 70 -14 0 -9 38 6 43 18 7 26
-1 26 -25 0 -10 5 -18 10 -18 6 0 10 10 10 21 0 18 2 19 15 9 13 -11 15 -8 15
15 0 23 -2 25 -15 15 -17 -14 -59 -3 -51 13 3 7 9 20 12 30 8 21 20 22 28 1 3
-8 11 -12 16 -9 7 4 1 16 -15 30 l-25 24 25 25 c20 20 23 31 18 60 -4 24 -2
36 6 36 6 0 11 -15 11 -34 0 -19 3 -41 6 -50 4 -11 1 -16 -10 -16 -21 0 -21
-26 0 -34 22 -9 24 -6 28 48 2 26 6 50 9 53 3 3 3 11 1 18 -8 19 47 26 67 9
24 -22 42 -18 29 6 -6 11 -18 20 -26 20 -12 0 -14 5 -8 18 4 9 8 34 7 55 -1
20 3 37 8 37 5 0 9 -4 9 -10 0 -5 5 -10 12 -10 6 0 19 -7 29 -16 16 -14 18
-13 24 15 4 19 11 28 20 25 16 -6 29 12 15 21 -5 3 -10 14 -10 23 0 13 2 14 9
3 7 -10 12 -8 24 10 l16 23 21 -24 20 -23 0 30 c0 27 -3 30 -26 25 -19 -3 -25
-1 -20 7 4 6 18 11 32 11 17 0 24 6 24 19 0 26 36 37 56 17 8 -9 21 -16 27
-15 8 0 8 2 -1 6 -6 2 -10 9 -7 14 3 4 -3 14 -15 21 -11 7 -20 17 -20 21 0 11
53 -1 60 -14 4 -5 21 2 40 16 19 14 29 25 22 25 -7 0 -12 11 -12 25 0 30 16
33 25 5 9 -30 23 -24 40 16 15 35 16 36 34 20 23 -21 40 -4 20 20 -11 13 -9
14 14 3 24 -11 30 -10 50 8 37 34 50 38 43 15 -12 -36 13 -34 28 2 12 29 18
34 38 29 13 -3 29 -10 36 -16 14 -11 45 10 36 24 -5 9 9 13 34 10 8 -1 16 7
19 18 5 21 29 29 35 12 4 -12 112 15 116 29 2 6 10 10 18 10 8 0 11 -6 8 -15
-9 -23 12 -18 30 8 8 12 13 15 10 6 -4 -13 0 -15 20 -12 17 4 26 12 26 24 0
26 16 24 24 -3 4 -17 8 -20 14 -10 5 7 16 10 24 7 10 -4 15 -1 15 7 -4 28 18
22 24 -7 5 -22 7 -24 8 -8 1 24 20 41 30 27 7 -11 71 -12 71 -2 0 14 36 14 52
0 11 -10 18 -11 18 -4 0 11 21 10 113 -4 26 -4 41 -13 47 -28 8 -20 9 -19 9 5
1 23 4 26 29 21 15 -2 35 -11 44 -20 13 -11 24 -12 39 -6 18 9 45 6 188 -15 2
-1 1 -7 -2 -15 -4 -10 0 -12 14 -9 10 3 19 10 19 15 0 5 11 -4 25 -19 19 -22
24 -24 25 -11 0 19 29 17 64 -5 13 -9 31 -11 48 -6 19 5 28 3 32 -7 3 -7 12
-11 21 -8 8 3 23 3 33 -1 9 -4 31 -8 47 -10 47 -4 155 -37 150 -45 -8 -13 22
-19 34 -7 6 6 11 7 11 1 0 -5 16 -10 35 -11 35 -3 100 -35 90 -45 -3 -3 3 -8
15 -11 13 -3 20 0 20 9 0 11 6 11 27 3 15 -6 34 -15 41 -22 8 -6 21 -12 30
-13 8 -2 18 -6 21 -11 3 -5 18 -9 34 -10 15 0 36 -11 47 -24 11 -13 19 -18 20
-11 0 19 34 14 58 -8 12 -11 25 -20 29 -19 20 3 34 -2 28 -11 -6 -10 7 -14 33
-11 8 1 21 -7 31 -18 12 -13 25 -18 39 -14 17 4 22 1 22 -15 0 -18 4 -20 37
-15 26 4 34 3 29 -5 -5 -8 3 -12 24 -12 18 0 29 -4 25 -10 -5 -9 16 -14 31 -7
3 1 11 -8 17 -20 12 -22 14 -23 41 -23 8 0 17 -11 20 -25 4 -14 12 -25 18 -25
9 0 9 3 0 12 -7 7 -12 16 -12 20 0 15 20 8 41 -13 11 -11 27 -18 35 -15 9 3
12 1 9 -4 -3 -6 3 -10 14 -10 12 0 21 -4 21 -10 0 -5 9 -10 21 -10 11 0 18 -4
15 -9 -7 -11 18 -33 27 -25 12 12 76 -26 71 -41 -4 -9 0 -12 14 -8 12 3 22 -1
25 -11 4 -9 17 -16 30 -16 13 0 32 -9 41 -19 10 -11 29 -22 44 -26 16 -4 21
-9 15 -13 -8 -5 -9 -13 -3 -22 7 -10 10 -11 10 -2 0 25 39 6 105 -54 13 -12
30 -24 39 -27 9 -4 21 -18 26 -32 6 -16 15 -23 24 -19 9 3 42 -12 77 -35 62
-41 73 -43 144 -21 17 5 95 111 102 138 3 14 1 39 -6 57 -14 40 -14 52 1 37
18 -18 28 -15 28 8 0 11 -7 20 -15 20 -8 0 -15 5 -15 10 0 6 6 10 13 10 16 0
67 96 67 125 0 37 46 119 104 188 32 37 52 67 47 67 -6 0 -11 16 -11 35 0 19
5 35 10 35 6 0 10 -15 10 -32 1 -31 1 -32 15 -14 8 11 15 27 15 37 0 9 6 19
14 22 15 6 96 111 97 124 0 5 15 24 33 43 38 41 96 124 96 139 0 6 18 28 39
50 21 22 40 44 42 48 2 5 29 24 60 41 31 18 74 54 95 80 71 87 134 131 234
162 14 5 -1639 9 -3672 9 l-3698 1 0 -6115z m3017 6073 c-3 -8 -6 -5 -6 6 -1
11 2 17 5 13 3 -3 4 -12 1 -19z m6103 -47 c0 -26 -3 -31 -13 -23 -8 7 -11 25
-9 48 5 44 22 26 22 -25z m-5170 -22 c0 -44 -20 -65 -21 -22 0 15 -3 41 -5 57
-5 26 -3 28 10 16 10 -7 16 -28 16 -51z m2130 -25 c0 -8 -4 -12 -10 -9 -5 3
-10 10 -10 16 0 5 5 9 10 9 6 0 10 -7 10 -16z m-2450 -40 c0 -9 9 -27 20 -41
27 -35 25 -44 -8 -32 -20 7 -32 20 -39 44 -6 19 -8 36 -5 39 11 12 32 5 32
-10z m6840 0 c0 -8 -4 -12 -10 -9 -5 3 -10 10 -10 16 0 5 5 9 10 9 6 0 10 -7
10 -16z m77 -146 c-3 -8 -6 -5 -6 6 -1 11 2 17 5 13 3 -3 4 -12 1 -19z m-420
-30 c-3 -7 -5 -2 -5 12 0 14 2 19 5 13 2 -7 2 -19 0 -25z m-6627 -8 c0 -11 -2
-20 -4 -20 -2 0 -6 9 -9 20 -3 11 -1 20 4 20 5 0 9 -9 9 -20z m7787 -77 c-3
-10 -5 -2 -5 17 0 19 2 27 5 18 2 -10 2 -26 0 -35z m-162 17 c3 -5 1 -10 -4
-10 -6 0 -11 5 -11 10 0 6 2 10 4 10 3 0 8 -4 11 -10z m-225 -52 c0 -4 -7 -5
-15 -2 -8 4 -15 16 -15 28 1 21 1 21 15 2 8 -11 15 -23 15 -28z m100 9 c0 -5
-4 -5 -10 -2 -5 3 -10 14 -10 23 0 15 2 15 10 2 5 -8 10 -19 10 -23z m-8156
-3 c11 -30 6 -37 -14 -19 -11 10 -20 22 -20 27 0 15 28 9 34 -8z m7593 -16
c-3 -7 -5 -2 -5 12 0 14 2 19 5 13 2 -7 2 -19 0 -25z m-9547 -32 c0 -16 -18
-31 -27 -22 -8 8 5 36 17 36 5 0 10 -6 10 -14z m9830 -12 c0 -8 -4 -14 -9 -14
-11 0 -22 26 -14 34 9 9 23 -3 23 -20z m287 -6 c-3 -7 -5 -2 -5 12 0 14 2 19
5 13 2 -7 2 -19 0 -25z m303 0 c0 -16 -3 -19 -11 -11 -6 6 -8 16 -5 22 11 17
16 13 16 -11z m-9133 -20 c-3 -8 -6 -5 -6 6 -1 11 2 17 5 13 3 -3 4 -12 1 -19z
m7616 -38 c4 -17 3 -19 -9 -9 -8 6 -14 18 -14 26 0 20 16 8 23 -17z m-6973
-21 c0 -5 -7 -9 -15 -9 -8 0 -15 7 -15 15 0 9 6 12 15 9 8 -4 15 -10 15 -15z
m8520 -16 c0 -7 -4 -13 -10 -13 -5 0 -10 12 -10 28 0 21 2 24 10 12 5 -8 10
-21 10 -27z m-1630 -4 c0 -6 -4 -7 -10 -4 -5 3 -10 11 -10 16 0 6 5 7 10 4 6
-3 10 -11 10 -16z m-1443 -21 c-3 -7 -5 -2 -5 12 0 14 2 19 5 13 2 -7 2 -19 0
-25z m2333 11 c0 -6 -4 -7 -10 -4 -5 3 -10 11 -10 16 0 6 5 7 10 4 6 -3 10
-11 10 -16z m-4420 -35 c0 -8 -4 -12 -10 -9 -5 3 -10 13 -10 21 0 8 5 12 10 9
6 -3 10 -13 10 -21z m3298 -29 c-3 -3 -9 2 -12 12 -6 14 -5 15 5 6 7 -7 10
-15 7 -18z m-3388 -26 c0 -5 -4 -9 -10 -9 -5 0 -10 7 -10 16 0 8 5 12 10 9 6
-3 10 -10 10 -16z m3984 5 c3 -8 2 -12 -4 -9 -6 3 -10 10 -10 16 0 14 7 11 14
-7z m1446 -10 c0 -14 -4 -23 -10 -19 -5 3 -10 15 -10 26 0 10 5 19 10 19 6 0
10 -12 10 -26z m320 -7 c0 -5 -4 -5 -10 -2 -5 3 -10 14 -10 23 0 15 2 15 10 2
5 -8 10 -19 10 -23z m-2200 -48 c6 -11 10 -28 8 -37 -3 -13 -8 -9 -21 15 -20
37 -21 43 -7 43 5 0 14 -9 20 -21z m-4350 -10 c0 -6 -4 -7 -10 -4 -5 3 -10 11
-10 16 0 6 5 7 10 4 6 -3 10 -11 10 -16z m3560 -18 c12 -24 13 -51 1 -51 -7 0
-31 51 -31 66 0 12 21 1 30 -15z m2817 -13 c-3 -8 -6 -5 -6 6 -1 11 2 17 5 13
3 -3 4 -12 1 -19z m-127 -24 c0 -8 -4 -12 -10 -9 -5 3 -10 13 -10 21 0 8 5 12
10 9 6 -3 10 -13 10 -21z m-9840 6 c0 -5 -2 -10 -4 -10 -3 0 -8 5 -11 10 -3 6
-1 10 4 10 6 0 11 -4 11 -10z m7634 -15 c3 -8 1 -15 -4 -15 -6 0 -10 7 -10 15
0 8 2 15 4 15 2 0 6 -7 10 -15z m2516 -6 c0 -18 -2 -19 -15 -9 -15 12 -12 30
6 30 5 0 9 -10 9 -21z m-9490 -25 c0 -21 -27 -17 -33 5 -3 11 -2 22 1 25 8 9
32 -14 32 -30z m9030 15 c0 -6 -4 -7 -10 -4 -5 3 -10 11 -10 16 0 6 5 7 10 4
6 -3 10 -11 10 -16z m-1350 -14 c13 -14 21 -25 18 -25 -2 0 -15 11 -28 25 -13
14 -21 25 -18 25 2 0 15 -11 28 -25z m720 0 c10 -12 10 -15 -4 -15 -9 0 -16 7
-16 15 0 8 2 15 4 15 2 0 9 -7 16 -15z m110 -28 c0 -20 -25 1 -28 24 -2 23 -2
23 13 5 8 -11 15 -24 15 -29z m318 14 c3 -8 -1 -12 -9 -9 -7 2 -15 10 -17 17
-3 8 1 12 9 9 7 -2 15 -10 17 -17z m-8871 -13 c-3 -8 -6 -5 -6 6 -1 11 2 17 5
13 3 -3 4 -12 1 -19z m6457 7 c3 -8 1 -15 -3 -15 -5 0 -11 7 -15 15 -3 8 -1
15 3 15 5 0 11 -7 15 -15z m159 -25 c8 -29 0 -24 -19 13 -14 27 -15 30 -2 19
9 -7 18 -22 21 -32z m2747 25 c7 -9 8 -15 2 -15 -5 0 -12 7 -16 15 -3 8 -4 15
-2 15 2 0 9 -7 16 -15z m-9426 -40 c-4 -8 -7 -15 -9 -15 -2 0 -5 7 -9 15 -3 9
0 15 9 15 9 0 12 -6 9 -15z m7424 -21 c-4 -3 -12 5 -18 18 -12 22 -12 22 6 6
10 -10 15 -20 12 -24z m2072 -1 c0 -19 -3 -24 -10 -17 -6 6 -8 18 -4 27 9 24
14 21 14 -10z m-9537 -23 c5 -25 11 -30 34 -30 24 -1 25 -2 11 -11 -20 -11
-58 4 -58 24 0 7 -3 23 -7 36 -4 15 -2 22 4 18 6 -4 13 -20 16 -37z m7974 8
c-3 -8 -6 -5 -6 6 -1 11 2 17 5 13 3 -3 4 -12 1 -19z m1333 1 c0 -6 -4 -7 -10
-4 -5 3 -10 11 -10 16 0 6 5 7 10 4 6 -3 10 -11 10 -16z m-740 -50 c0 -6 -4
-7 -10 -4 -5 3 -10 11 -10 16 0 6 5 7 10 4 6 -3 10 -11 10 -16z m744 -48 c-9
-12 -24 15 -23 42 l0 32 13 -35 c7 -19 11 -37 10 -39z m-5129 1 c0 -31 -19
-28 -23 4 -3 18 0 25 10 22 7 -3 13 -14 13 -26z m4250 8 c3 -5 1 -10 -4 -10
-6 0 -11 5 -11 10 0 6 2 10 4 10 3 0 8 -4 11 -10z m1260 -71 c11 -17 -1 -21
-15 -4 -8 9 -8 15 -2 15 6 0 14 -5 17 -11z m145 -46 c0 -3 -7 0 -15 7 -8 7
-15 22 -15 34 0 18 2 17 15 -8 8 -15 15 -31 15 -33z m-2003 15 c-3 -8 -6 -5
-6 6 -1 11 2 17 5 13 3 -3 4 -12 1 -19z m787 -3 c3 -8 1 -15 -3 -15 -5 0 -11
7 -15 15 -3 8 -1 15 3 15 5 0 11 -7 15 -15z m1104 -40 c-3 -3 -9 2 -12 12 -6
14 -5 15 5 6 7 -7 10 -15 7 -18z m-11893 5 c3 -5 1 -10 -4 -10 -6 0 -11 5 -11
10 0 6 2 10 4 10 3 0 8 -4 11 -10z m9312 -22 c-3 -8 -6 -5 -6 6 -1 11 2 17 5
13 3 -3 4 -12 1 -19z m1333 -9 c0 -6 -4 -7 -10 -4 -5 3 -10 11 -10 16 0 6 5 7
10 4 6 -3 10 -11 10 -16z m-540 -24 c0 -8 -2 -15 -4 -15 -2 0 -6 7 -10 15 -3
8 -1 15 4 15 6 0 10 -7 10 -15z m-8120 -31 c0 -8 -4 -12 -10 -9 -5 3 -10 10
-10 16 0 5 5 9 10 9 6 0 10 -7 10 -16z m9033 -24 c3 -11 2 -20 -3 -20 -8 0
-20 24 -20 41 0 17 17 1 23 -21z m250 15 c4 -8 2 -17 -3 -20 -6 -4 -10 3 -10
14 0 25 6 27 13 6z m317 -6 c0 -6 -4 -7 -10 -4 -5 3 -10 11 -10 16 0 6 5 7 10
4 6 -3 10 -11 10 -16z m-1990 -34 c7 -8 8 -15 2 -15 -5 0 -15 7 -22 15 -7 8
-8 15 -2 15 5 0 15 -7 22 -15z m430 -21 c0 -8 -4 -12 -10 -9 -5 3 -10 10 -10
16 0 5 5 9 10 9 6 0 10 -7 10 -16z m-1760 -43 c-1 -25 -1 -25 -15 -7 -8 11
-15 29 -15 39 0 16 3 17 15 7 8 -7 15 -24 15 -39z m2471 -3 c6 -12 6 -18 0
-18 -10 0 -41 51 -41 67 1 9 26 -22 41 -49z m-2416 12 c3 -5 1 -10 -4 -10 -6
0 -11 5 -11 10 0 6 2 10 4 10 3 0 8 -4 11 -10z m3322 -12 c-3 -8 -6 -5 -6 6
-1 11 2 17 5 13 3 -3 4 -12 1 -19z m-9697 8 c0 -3 -4 -8 -10 -11 -5 -3 -10 -1
-10 4 0 6 5 11 10 11 6 0 10 -2 10 -4z m8308 -92 c-3 -14 -7 -10 -16 16 -12
32 -11 34 4 19 9 -9 14 -25 12 -35z m1672 25 c0 -6 -4 -7 -10 -4 -5 3 -10 11
-10 16 0 6 5 7 10 4 6 -3 10 -11 10 -16z m50 -15 c0 -8 -4 -12 -10 -9 -5 3
-10 13 -10 21 0 8 5 12 10 9 6 -3 10 -13 10 -21z m-10005 -14 c3 -5 1 -10 -4
-10 -6 0 -11 5 -11 10 0 6 2 10 4 10 3 0 8 -4 11 -10z m7005 -17 c0 -19 -3
-24 -10 -17 -6 6 -8 18 -4 27 9 24 14 21 14 -10z m2375 17 c-3 -5 -11 -10 -16
-10 -6 0 -7 5 -4 10 3 6 11 10 16 10 6 0 7 -4 4 -10z m-9417 -38 c2 -7 -3 -12
-12 -12 -9 0 -16 7 -16 16 0 17 22 14 28 -4z m8660 -17 c-3 -3 -9 2 -12 12 -6
14 -5 15 5 6 7 -7 10 -15 7 -18z m-474 -21 c8 -21 8 -24 -3 -24 -5 0 -11 9
-14 20 -6 24 8 27 17 4z m-124 -53 c-1 -12 -5 -10 -20 8 -26 30 -26 49 0 26
11 -10 20 -25 20 -34z m-8106 8 c-10 -16 -24 -9 -24 12 0 18 2 19 15 9 8 -7
12 -16 9 -21z m7906 -20 c0 -6 -4 -7 -10 -4 -5 3 -10 11 -10 16 0 6 5 7 10 4
6 -3 10 -11 10 -16z m-1876 -5 c4 -9 4 -19 1 -22 -6 -6 -35 18 -35 29 0 16 28
10 34 -7z m3984 -59 c-3 -3 -9 2 -12 12 -6 14 -5 15 5 6 7 -7 10 -15 7 -18z
m-9958 -54 c0 -5 -6 -14 -14 -20 -16 -13 -32 2 -21 19 8 12 35 13 35 1z m6950
5 c0 -3 -4 -8 -10 -11 -5 -3 -10 -1 -10 4 0 6 5 11 10 11 6 0 10 -2 10 -4z
m1438 -15 c3 -8 -1 -12 -9 -9 -7 2 -15 10 -17 17 -3 8 1 12 9 9 7 -2 15 -10
17 -17z m-354 -17 c4 -9 4 -19 2 -21 -8 -8 -26 8 -26 23 0 19 16 18 24 -2z
m2149 -3 c3 -14 1 -18 -9 -14 -8 3 -14 11 -14 19 0 21 17 17 23 -5z m-10173
-1 c0 -5 -2 -10 -4 -10 -3 0 -8 5 -11 10 -3 6 -1 10 4 10 6 0 11 -4 11 -10z
m9405 -10 c3 -5 1 -10 -4 -10 -6 0 -11 5 -11 10 0 6 2 10 4 10 3 0 8 -4 11
-10z m205 -11 c0 -6 -4 -7 -10 -4 -5 3 -10 11 -10 16 0 6 5 7 10 4 6 -3 10
-11 10 -16z m125 -9 c3 -5 1 -10 -4 -10 -6 0 -11 5 -11 10 0 6 2 10 4 10 3 0
8 -4 11 -10z m-9705 -8 c0 -13 -12 -22 -22 -16 -10 6 -1 24 13 24 5 0 9 -4 9
-8z m9674 -74 c-9 -14 -34 12 -34 36 1 21 1 21 20 -3 11 -12 17 -27 14 -33z
m-9734 12 c0 -5 -4 -10 -10 -10 -5 0 -10 5 -10 10 0 6 5 10 10 10 6 0 10 -4
10 -10z m-33 -52 c-3 -8 -6 -5 -6 6 -1 11 2 17 5 13 3 -3 4 -12 1 -19z m8230
-45 c-3 -10 -5 -2 -5 17 0 19 2 27 5 18 2 -10 2 -26 0 -35z m-667 11 c0 -20
-7 -17 -20 6 -9 16 -8 18 5 14 8 -4 15 -12 15 -20z m2655 -34 c3 -5 1 -10 -4
-10 -6 0 -11 5 -11 10 0 6 2 10 4 10 3 0 8 -4 11 -10z m-10103 -74 c-9 -17
-21 21 -14 45 6 23 6 23 12 -6 4 -16 4 -34 2 -39z m8146 39 c-3 -3 -9 2 -12
12 -6 14 -5 15 5 6 7 -7 10 -15 7 -18z m-8196 -17 c-7 -7 -12 -8 -12 -2 0 14
12 26 19 19 2 -3 -1 -11 -7 -17z m-52 2 c0 -5 -5 -10 -11 -10 -5 0 -7 5 -4 10
3 6 8 10 11 10 2 0 4 -4 4 -10z m9755 -28 c-6 -7 -35 18 -35 31 0 5 9 2 20 -8
11 -10 18 -20 15 -23z m-1347 10 c6 -18 -15 -14 -22 4 -4 10 -1 14 6 12 6 -2
14 -10 16 -16z m-8336 -33 c-22 -8 -22 -7 -15 19 5 21 6 21 18 5 11 -15 11
-19 -3 -24z m8593 11 c18 -34 19 -44 5 -35 -16 10 -42 65 -31 65 6 0 17 -13
26 -30z m1335 20 c0 -5 -2 -10 -4 -10 -3 0 -8 5 -11 10 -3 6 -1 10 4 10 6 0
11 -4 11 -10z m-2106 -16 c3 -8 2 -12 -4 -9 -6 3 -10 10 -10 16 0 14 7 11 14
-7z m1043 -6 c-3 -8 -6 -5 -6 6 -1 11 2 17 5 13 3 -3 4 -12 1 -19z m-517 -41
c0 -5 -7 -4 -15 3 -8 7 -15 20 -15 29 1 13 3 13 15 -3 8 -11 15 -24 15 -29z
m1180 15 c0 -15 -2 -15 -10 -2 -13 20 -13 33 0 25 6 -3 10 -14 10 -23z m-9560
8 c0 -5 -4 -10 -9 -10 -6 0 -13 5 -16 10 -3 6 1 10 9 10 9 0 16 -4 16 -10z
m75 -27 c-7 -32 -22 -50 -31 -40 -8 8 18 67 30 67 4 0 5 -12 1 -27z m9825 -25
c0 -5 -4 -8 -8 -8 -12 0 -32 46 -24 54 6 6 31 -31 32 -46z m298 40 c15 -15 16
-41 0 -36 -13 5 -31 48 -20 48 5 0 13 -5 20 -12z m-10068 -29 c0 -5 -6 -9 -14
-9 -15 0 -28 24 -19 34 7 7 33 -13 33 -25z m9080 6 c11 -13 10 -14 -4 -9 -9 3
-16 10 -16 15 0 13 6 11 20 -6z m-1255 -33 c-6 -7 -35 18 -35 31 0 5 9 2 20
-8 11 -10 18 -20 15 -23z m95 17 c0 -6 -4 -7 -10 -4 -5 3 -10 11 -10 16 0 6 5
7 10 4 6 -3 10 -11 10 -16z m-8030 -10 c0 -6 -4 -7 -10 -4 -5 3 -10 11 -10 16
0 6 5 7 10 4 6 -3 10 -11 10 -16z m9037 -11 c-3 -8 -6 -5 -6 6 -1 11 2 17 5
13 3 -3 4 -12 1 -19z m1072 -9 l15 -24 -22 19 c-22 19 -22 19 -22 0 -1 -18 -1
-18 -11 -1 -11 19 -3 40 14 34 5 -1 17 -14 26 -28z m-10134 11 c3 -5 -1 -10
-9 -10 -9 0 -16 5 -16 10 0 6 4 10 9 10 6 0 13 -4 16 -10z m54 -24 c10 -11 7
-14 -12 -12 -15 0 -23 6 -20 14 7 16 18 15 32 -2z m7908 -18 c-3 -7 -5 -2 -5
12 0 14 2 19 5 13 2 -7 2 -19 0 -25z m1018 21 c11 -17 -1 -21 -15 -4 -8 9 -8
15 -2 15 6 0 14 -5 17 -11z m-9005 -29 c0 -5 -4 -10 -10 -10 -5 0 -10 5 -10
10 0 6 5 10 10 10 6 0 10 -4 10 -10z m8260 -6 c0 -8 -4 -12 -10 -9 -5 3 -10
10 -10 16 0 5 5 9 10 9 6 0 10 -7 10 -16z m1095 -5 c11 -17 -1 -21 -15 -4 -8
9 -8 15 -2 15 6 0 14 -5 17 -11z m193 -35 c-4 -3 -12 5 -18 18 -12 22 -12 22
6 6 10 -10 15 -20 12 -24z m-9453 16 c-3 -5 -13 -10 -21 -10 -8 0 -14 5 -14
10 0 6 9 10 21 10 11 0 17 -4 14 -10z m10085 -31 c0 -6 -4 -7 -10 -4 -5 3 -10
11 -10 16 0 6 5 7 10 4 6 -3 10 -11 10 -16z m-1880 -10 c11 -19 10 -20 -9 -9
-22 11 -29 30 -11 30 5 0 14 -9 20 -21z m1776 -16 c-8 -8 -36 10 -36 25 0 13
3 12 20 -3 11 -10 18 -20 16 -22z m-10012 12 c-4 -8 -10 -15 -15 -15 -4 0 -6
7 -3 15 4 8 10 15 15 15 4 0 6 -7 3 -15z m8084 -21 c-10 -10 -28 6 -28 24 0
15 1 15 17 -1 9 -9 14 -19 11 -23z m757 26 c3 -5 2 -10 -4 -10 -5 0 -13 5 -16
10 -3 6 -2 10 4 10 5 0 13 -4 16 -10z m1345 -18 c0 -15 -2 -15 -10 -2 -13 20
-13 33 0 25 6 -3 10 -14 10 -23z m-1445 -2 c3 -5 1 -10 -4 -10 -6 0 -11 5 -11
10 0 6 2 10 4 10 3 0 8 -4 11 -10z m1395 -61 c0 -11 -4 -17 -10 -14 -5 3 -10
15 -10 26 0 11 5 17 10 14 6 -3 10 -15 10 -26z m-1330 0 c0 -6 -4 -7 -10 -4
-5 3 -10 11 -10 16 0 6 5 7 10 4 6 -3 10 -11 10 -16z m-8697 4 c7 -7 -21 -43
-34 -43 -4 0 -2 11 4 25 12 26 19 30 30 18z m8335 -18 c-3 -3 -9 2 -12 12 -6
14 -5 15 5 6 7 -7 10 -15 7 -18z m291 -21 c3 -16 1 -17 -13 -5 -19 16 -21 34
-3 29 6 -3 14 -13 16 -24z m-8599 12 c0 -3 -4 -8 -10 -11 -5 -3 -10 -1 -10 4
0 6 5 11 10 11 6 0 10 -2 10 -4z m8345 -7 c11 -17 -1 -21 -15 -4 -8 9 -8 15
-2 15 6 0 14 -5 17 -11z m-410 -9 c3 -5 1 -10 -4 -10 -6 0 -11 5 -11 10 0 6 2
10 4 10 3 0 8 -4 11 -10z m550 -20 c3 -6 -1 -7 -9 -4 -18 7 -21 14 -7 14 6 0
13 -4 16 -10z m1025 -60 c11 -8 19 -50 9 -50 -5 0 -9 6 -9 14 0 7 -9 25 -20
39 -11 14 -20 33 -20 44 1 13 5 10 17 -12 9 -16 19 -32 23 -35z m-9492 33 c-1
-10 1 -24 5 -30 11 -17 0 -33 -18 -27 -23 9 -27 36 -8 55 23 23 25 23 21 2z
m9652 -51 c0 -15 -2 -15 -10 -2 -13 20 -13 33 0 25 6 -3 10 -14 10 -23z
m-9709 -9 c13 -16 12 -17 -3 -4 -17 13 -22 21 -14 21 2 0 10 -8 17 -17z m8589
-15 c0 -5 -4 -8 -10 -8 -5 0 -10 10 -10 23 0 18 2 19 10 7 5 -8 10 -18 10 -22z
m597 10 c-3 -8 -6 -5 -6 6 -1 11 2 17 5 13 3 -3 4 -12 1 -19z m907 6 c4 -10 1
-14 -6 -12 -15 5 -23 28 -10 28 5 0 13 -7 16 -16z m-1648 -42 c-9 -8 -26 10
-26 26 1 15 2 15 15 -2 8 -11 13 -21 11 -24z m1204 -5 c0 -5 -4 -5 -10 -2 -5
3 -10 14 -10 23 0 15 2 15 10 2 5 -8 10 -19 10 -23z m-9590 -40 c0 -5 -4 -5
-10 -2 -5 3 -10 14 -10 23 0 15 2 15 10 2 5 -8 10 -19 10 -23z m-40 -18 c0 -5
-4 -9 -10 -9 -5 0 -10 7 -10 16 0 8 5 12 10 9 6 -3 10 -10 10 -16z m9370 -5
c0 -8 -4 -12 -10 -9 -5 3 -10 10 -10 16 0 5 5 9 10 9 6 0 10 -7 10 -16z m580
-14 c0 -5 -2 -10 -4 -10 -3 0 -8 5 -11 10 -3 6 -1 10 4 10 6 0 11 -4 11 -10z
m-1120 -15 c7 -9 8 -15 2 -15 -5 0 -12 7 -16 15 -3 8 -4 15 -2 15 2 0 9 -7 16
-15z m490 -56 c0 -6 -4 -7 -10 -4 -5 3 -10 11 -10 16 0 6 5 7 10 4 6 -3 10
-11 10 -16z m-9224 -16 c-10 -10 -19 5 -10 18 6 11 8 11 12 0 2 -7 1 -15 -2
-18z m8934 6 c0 -6 -4 -7 -10 -4 -5 3 -10 11 -10 16 0 6 5 7 10 4 6 -3 10 -11
10 -16z m640 6 c7 -9 11 -18 8 -20 -9 -10 -38 7 -38 21 0 18 14 18 30 -1z
m-100 -5 c0 -5 -2 -10 -4 -10 -3 0 -8 5 -11 10 -3 6 -1 10 4 10 6 0 11 -4 11
-10z m-720 -21 c0 -5 -4 -9 -10 -9 -5 0 -10 7 -10 16 0 8 5 12 10 9 6 -3 10
-10 10 -16z m594 5 c20 -19 21 -54 2 -54 -11 0 -36 46 -36 66 0 10 20 2 34
-12z m-357 -36 c-3 -8 -6 -5 -6 6 -1 11 2 17 5 13 3 -3 4 -12 1 -19z m-9013
-33 c-4 -8 -8 -15 -10 -15 -2 0 -4 7 -4 15 0 8 4 15 10 15 5 0 7 -7 4 -15z
m9786 -34 c0 -5 3 -18 7 -28 6 -16 5 -16 -10 -4 -19 15 -23 41 -7 41 6 0 10
-4 10 -9z m94 -31 c7 -24 6 -24 -8 -6 -9 11 -16 27 -16 35 0 21 16 2 24 -29z
m-364 -45 c7 -9 8 -15 2 -15 -5 0 -12 7 -16 15 -3 8 -4 15 -2 15 2 0 9 -7 16
-15z m-1012 -40 c-3 -3 -9 2 -12 12 -6 14 -5 15 5 6 7 -7 10 -15 7 -18z
m-8458 5 c0 -5 -4 -10 -10 -10 -5 0 -10 5 -10 10 0 6 5 10 10 10 6 0 10 -4 10
-10z m50 -101 c0 -5 -4 -9 -10 -9 -5 0 -10 7 -10 16 0 8 5 12 10 9 6 -3 10
-10 10 -16z m8850 1 c8 -16 8 -18 -4 -14 -17 6 -30 34 -16 34 5 0 14 -9 20
-20z m848 -32 c7 -17 8 -28 2 -28 -6 0 -10 1 -10 3 0 1 -4 18 -10 36 -11 38 0
31 18 -11z m-452 -16 c-9 -8 -46 20 -46 35 0 13 5 12 25 -7 14 -13 23 -25 21
-28z m-9072 22 c18 -17 22 -59 5 -49 -6 4 -8 12 -6 19 3 8 -4 11 -24 8 -21 -3
-29 0 -29 10 0 31 29 37 54 12z m9146 -30 c0 -8 -4 -12 -10 -9 -5 3 -10 13
-10 21 0 8 5 12 10 9 6 -3 10 -13 10 -21z m-9450 -14 c0 -5 -2 -10 -4 -10 -3
0 -8 5 -11 10 -3 6 -1 10 4 10 6 0 11 -4 11 -10z m8561 -43 c12 -22 12 -22
-10 -3 -11 11 -21 23 -21 28 0 14 19 -1 31 -25z m789 -19 c0 -14 -19 1 -31 25
-12 22 -12 22 10 3 11 -11 21 -23 21 -28z m200 14 c0 -15 -2 -15 -10 -2 -13
20 -13 33 0 25 6 -3 10 -14 10 -23z m-680 -13 c0 -14 -17 -10 -23 5 -4 10 -1
13 9 9 7 -3 14 -9 14 -14z m620 -21 c0 -6 -7 -5 -15 2 -8 7 -15 17 -15 22 0 6
7 5 15 -2 8 -7 15 -17 15 -22z m-9116 1 c-3 -5 -10 -7 -15 -3 -5 3 -7 10 -3
15 3 5 10 7 15 3 5 -3 7 -10 3 -15z m8372 -26 c-4 -4 -11 -1 -16 7 -16 25 -11
35 7 17 9 -9 13 -20 9 -24z m1134 2 c0 -19 -5 -19 -24 1 -23 22 -20 37 4 24
11 -6 20 -17 20 -25z m-9414 -30 c17 -16 14 -18 -10 -9 -9 3 -16 10 -16 15 0
13 9 11 26 -6z m-118 -20 c-3 -3 -9 2 -12 12 -6 14 -5 15 5 6 7 -7 10 -15 7
-18z m115 -7 c10 2 17 -3 17 -12 0 -19 -9 -20 -45 -6 -14 5 -23 15 -20 20 4 6
12 7 18 3 7 -4 20 -6 30 -5z m9032 2 c3 -5 1 -10 -4 -10 -6 0 -11 5 -11 10 0
6 2 10 4 10 3 0 8 -4 11 -10z m-899 -27 c-7 -7 -26 7 -26 19 0 6 6 6 15 -2 9
-7 13 -15 11 -17z m479 7 c3 -6 -1 -7 -9 -4 -18 7 -21 14 -7 14 6 0 13 -4 16
-10z m795 -21 c0 -6 -4 -7 -10 -4 -5 3 -10 11 -10 16 0 6 5 7 10 4 6 -3 10
-11 10 -16z m-9425 -9 c3 -5 1 -10 -4 -10 -6 0 -11 5 -11 10 0 6 2 10 4 10 3
0 8 -4 11 -10z m9515 -11 c0 -6 -4 -7 -10 -4 -5 3 -10 11 -10 16 0 6 5 7 10 4
6 -3 10 -11 10 -16z m-39 -26 c13 -16 12 -17 -3 -4 -10 7 -18 15 -18 17 0 8 8
3 21 -13z m-9431 -3 c0 -5 -5 -10 -11 -10 -5 0 -7 5 -4 10 3 6 8 10 11 10 2 0
4 -4 4 -10z m9285 0 c3 -5 1 -10 -4 -10 -6 0 -11 5 -11 10 0 6 2 10 4 10 3 0
8 -4 11 -10z m-9575 -72 c0 -17 -2 -19 -16 -7 -21 17 -45 65 -36 73 10 11 52
-42 52 -66z m70 44 c0 -15 -2 -15 -10 -2 -13 20 -13 33 0 25 6 -3 10 -14 10
-23z m8350 -54 c0 -4 -4 -8 -10 -8 -5 0 -10 7 -10 15 0 8 -9 20 -20 27 -11 7
-20 17 -20 22 0 5 14 -3 30 -19 17 -16 30 -32 30 -37z m980 41 c0 -6 -4 -7
-10 -4 -5 3 -10 11 -10 16 0 6 5 7 10 4 6 -3 10 -11 10 -16z m-9050 -9 c0 -5
-2 -10 -4 -10 -3 0 -8 5 -11 10 -3 6 -1 10 4 10 6 0 11 -4 11 -10z m8330 -11
c0 -5 -4 -9 -10 -9 -5 0 -10 7 -10 16 0 8 5 12 10 9 6 -3 10 -10 10 -16z m380
-32 c0 -26 -15 -12 -25 23 -7 22 -6 23 9 11 9 -7 16 -23 16 -34z m-8758 1 c-9
-9 -12 -7 -12 12 0 19 3 21 12 12 9 -9 9 -15 0 -24z m-216 -100 c32 -57 73
-127 91 -156 19 -29 50 -89 69 -133 19 -45 40 -93 48 -108 7 -14 24 -50 37
-80 13 -30 39 -77 57 -105 18 -28 40 -76 49 -106 24 -81 75 -211 94 -240 27
-40 99 -197 99 -215 0 -35 -26 -6 -65 71 -22 44 -47 91 -56 104 -21 33 -85
196 -94 240 -8 36 -45 117 -75 160 -9 14 -27 50 -39 80 -31 72 -86 194 -115
250 -52 103 -131 247 -148 269 -16 21 -26 71 -14 71 3 0 31 -46 62 -102z m324
36 c0 -8 -5 -12 -10 -9 -6 4 -8 11 -5 16 9 14 15 11 15 -7z m9060 -78 c0 -4
-9 -6 -19 -6 -14 0 -18 5 -14 19 3 10 0 22 -6 25 -6 4 -11 15 -11 24 0 10 10
2 25 -20 14 -20 25 -39 25 -42z m-365 54 c3 -5 1 -10 -4 -10 -6 0 -11 5 -11
10 0 6 2 10 4 10 3 0 8 -4 11 -10z m479 -43 c26 -38 32 -57 19 -57 -13 0 -53
65 -53 85 0 22 1 21 34 -28z m-9060 8 c7 -19 -3 -19 -28 0 -19 15 -19 15 1 15
11 0 23 -7 27 -15z m-24 -31 c0 -8 -4 -14 -10 -14 -5 0 -10 9 -10 21 0 11 5
17 10 14 6 -3 10 -13 10 -21z m7941 9 c13 -17 13 -17 -6 -3 -11 8 -22 16 -24
17 -2 2 0 3 6 3 6 0 17 -8 24 -17z m643 -9 c3 -8 2 -12 -4 -9 -6 3 -10 10 -10
16 0 14 7 11 14 -7z m-8536 -27 c7 -8 8 -24 4 -41 -7 -27 -8 -27 -18 13 -11
41 -6 52 14 28z m39 -39 c-3 -8 -6 -5 -6 6 -1 11 2 17 5 13 3 -3 4 -12 1 -19z
m-87 -8 c0 -11 -4 -20 -9 -20 -14 0 -23 18 -16 30 10 17 25 11 25 -10z m8240
-21 c0 -6 -4 -7 -10 -4 -5 3 -10 11 -10 16 0 6 5 7 10 4 6 -3 10 -11 10 -16z
m201 -71 c8 -16 8 -19 -2 -16 -6 2 -16 14 -20 27 -11 27 6 19 22 -11z m-581
12 c0 -5 -2 -10 -4 -10 -3 0 -8 5 -11 10 -3 6 -1 10 4 10 6 0 11 -4 11 -10z
m899 -37 c30 -37 19 -39 -20 -4 -24 22 -29 31 -17 31 9 0 26 -12 37 -27z m506
-3 c3 -5 2 -10 -4 -10 -5 0 -13 5 -16 10 -3 6 -2 10 4 10 5 0 13 -4 16 -10z
m-1397 -36 c3 -28 3 -28 -12 -9 -19 24 -21 48 -3 43 6 -3 13 -18 15 -34z
m-7668 -10 c0 -8 -4 -12 -10 -9 -5 3 -10 10 -10 16 0 5 5 9 10 9 6 0 10 -7 10
-16z m7643 -47 c-9 -15 -21 4 -15 25 5 21 6 21 12 2 4 -10 5 -22 3 -27z m947
22 c17 -31 6 -33 -26 -5 -28 24 -28 25 -7 26 13 0 27 -9 33 -21z m-89 -26 c13
-16 12 -17 -3 -4 -17 13 -22 21 -14 21 2 0 10 -8 17 -17z m570 -10 c13 -16 12
-17 -3 -4 -10 7 -18 15 -18 17 0 8 8 3 21 -13z m-9014 -29 c-9 -9 -28 6 -21
18 4 6 10 6 17 -1 6 -6 8 -13 4 -17z m65 -6 c-6 -6 -16 -7 -22 -3 -9 6 -9 9 1
16 17 10 34 0 21 -13z m7998 -58 c0 -5 -13 -2 -30 6 -16 9 -30 22 -30 30 0 12
6 11 30 -6 17 -12 30 -25 30 -30z m698 11 c7 -20 -34 5 -42 25 -6 15 -4 15 16
2 12 -8 24 -20 26 -27z m-8634 -12 c-3 -5 -10 -7 -15 -3 -5 3 -7 10 -3 15 3 5
10 7 15 3 5 -3 7 -10 3 -15z m110 -14 c-4 -15 -2 -25 5 -25 14 0 15 -27 1 -35
-13 -8 -32 43 -25 66 9 28 26 23 19 -6z m8476 10 c0 -8 -4 -15 -10 -15 -5 0
-10 7 -10 15 0 8 5 15 10 15 6 0 10 -7 10 -15z m-530 -15 c0 -5 -4 -10 -9 -10
-6 0 -13 5 -16 10 -3 6 1 10 9 10 9 0 16 -4 16 -10z m110 6 c0 -3 -4 -8 -10
-11 -5 -3 -10 -1 -10 4 0 6 5 11 10 11 6 0 10 -2 10 -4z m-8100 -16 c0 -5 -5
-10 -11 -10 -5 0 -7 5 -4 10 3 6 8 10 11 10 2 0 4 -4 4 -10z m-105 -19 c-3 -6
-11 -8 -17 -5 -6 4 -5 9 3 15 16 10 23 4 14 -10z m8942 -3 c-3 -8 -6 -5 -6 6
-1 11 2 17 5 13 3 -3 4 -12 1 -19z m-600 -20 c-3 -8 -6 -5 -6 6 -1 11 2 17 5
13 3 -3 4 -12 1 -19z m-97 -9 c0 -6 -4 -7 -10 -4 -5 3 -10 11 -10 16 0 6 5 7
10 4 6 -3 10 -11 10 -16z m-8070 -25 c0 -8 -4 -12 -10 -9 -5 3 -10 10 -10 16
0 5 5 9 10 9 6 0 10 -7 10 -16z m7325 -4 c3 -5 -1 -10 -10 -10 -9 0 -13 5 -10
10 3 6 8 10 10 10 2 0 7 -4 10 -10z m230 0 c3 -5 1 -10 -4 -10 -6 0 -11 5 -11
10 0 6 2 10 4 10 3 0 8 -4 11 -10z m-7360 -31 c10 -16 -4 -59 -19 -59 -15 0
-30 45 -21 60 8 13 32 13 40 -1z m8520 -57 c-7 -7 -34 18 -47 42 -8 16 -3 14
21 -8 17 -16 29 -32 26 -34z m-311 7 c-8 -14 -24 -10 -24 6 0 9 6 12 15 9 8
-4 12 -10 9 -15z m-8376 0 c-2 -6 -8 -10 -13 -10 -5 0 -11 4 -13 10 -2 6 4 11
13 11 9 0 15 -5 13 -11z m7907 -39 c3 -5 1 -10 -4 -10 -6 0 -11 5 -11 10 0 6
2 10 4 10 3 0 8 -4 11 -10z m-7777 -25 c16 -34 15 -58 0 -52 -7 2 -12 13 -10
25 2 11 -2 23 -8 27 -12 7 -13 25 -2 25 5 0 14 -11 20 -25z m7663 -22 c13 -16
12 -17 -3 -4 -10 7 -18 15 -18 17 0 8 8 3 21 -13z m149 -26 c0 -5 -4 -5 -10
-2 -5 3 -10 14 -10 23 0 15 2 15 10 2 5 -8 10 -19 10 -23z m118 -24 c-14 -13
-20 -14 -32 -3 -22 18 -20 28 7 32 32 6 44 -9 25 -29z m-7821 -5 c-3 -7 -5 -2
-5 12 0 14 2 19 5 13 2 -7 2 -19 0 -25z m7212 -44 c-10 -12 -7 -20 14 -42 37
-38 36 -54 -3 -41 -16 6 -30 17 -30 25 0 8 -7 17 -15 20 -24 10 -17 38 13 55
29 17 41 7 21 -17z m816 16 c3 -5 1 -10 -4 -10 -6 0 -11 5 -11 10 0 6 2 10 4
10 3 0 8 -4 11 -10z m-8006 -16 c1 -1 0 -8 -4 -14 -5 -8 -11 -8 -21 1 -8 6
-14 8 -14 5 0 -4 -5 -4 -10 -1 -18 11 1 26 23 19 12 -3 24 -8 26 -10z m7566 6
c-3 -5 -11 -10 -16 -10 -6 0 -7 5 -4 10 3 6 11 10 16 10 6 0 7 -4 4 -10z m687
-27 c26 -23 22 -30 -12 -25 -33 5 -32 4 -24 26 8 20 13 20 36 -1z m245 -29
c-6 -6 -47 9 -47 17 0 5 11 3 25 -3 14 -6 24 -13 22 -14z m-8217 -32 c0 -17
-28 -52 -42 -52 -5 0 -8 8 -6 17 2 12 -4 18 -17 18 -11 0 -21 7 -23 15 -2 11
8 15 43 16 34 1 45 -2 45 -14z m44 -17 c13 -19 14 -29 4 -52 -9 -22 -12 -24
-15 -10 -3 9 -11 17 -19 17 -13 0 -13 2 1 16 11 12 13 20 6 27 -6 6 -11 15
-11 19 0 16 18 7 34 -17z m-141 9 c9 -10 -12 -46 -24 -39 -14 9 -11 45 4 45 8
0 17 -3 20 -6z m8197 -4 c0 -5 -4 -10 -10 -10 -5 0 -10 5 -10 10 0 6 5 10 10
10 6 0 10 -4 10 -10z m-1070 -45 c17 -9 30 -20 30 -25 0 -16 -13 -12 -45 15
-34 28 -28 32 15 10z m-7090 -35 c0 -5 -4 -10 -10 -10 -5 0 -10 5 -10 10 0 6
5 10 10 10 6 0 10 -4 10 -10z m7330 0 c0 -5 -2 -10 -4 -10 -3 0 -8 5 -11 10
-3 6 -1 10 4 10 6 0 11 -4 11 -10z m-242 -28 c6 -18 -15 -14 -22 4 -4 10 -1
14 6 12 6 -2 14 -10 16 -16z m186 -17 c3 -8 1 -15 -4 -15 -6 0 -10 7 -10 15 0
8 2 15 4 15 2 0 6 -7 10 -15z m778 -2 c20 -25 39 -73 29 -73 -7 0 -46 53 -59
83 -7 14 15 7 30 -10z m-7862 -3 c0 -5 -7 -10 -15 -10 -8 0 -15 5 -15 10 0 6
7 10 15 10 8 0 15 -4 15 -10z m-57 -7 c-13 -5 -19 -33 -7 -33 3 0 14 5 24 10
16 9 22 5 35 -21 21 -39 12 -49 -16 -18 -15 17 -20 19 -16 7 10 -28 -7 -21
-32 13 -19 25 -21 33 -10 40 8 5 19 8 24 8 6 0 4 -3 -2 -6z m147 -13 c0 -11
-7 -20 -15 -20 -15 0 -21 21 -8 33 12 13 23 7 23 -13z m7162 3 c30 -36 32 -46
7 -38 -24 7 -49 31 -49 47 0 14 27 8 42 -9z m788 -38 c7 -9 8 -15 2 -15 -5 0
-12 7 -16 15 -3 8 -4 15 -2 15 2 0 9 -7 16 -15z m-7955 -25 c16 -6 23 -17 23
-36 l0 -28 -20 27 c-11 15 -24 25 -29 21 -5 -3 -9 7 -8 23 0 15 3 22 6 15 3
-7 15 -17 28 -22z m7515 5 c7 -9 8 -15 2 -15 -5 0 -12 7 -16 15 -3 8 -4 15 -2
15 2 0 9 -7 16 -15z m-7381 -47 c-11 -19 -14 -20 -17 -6 -2 9 2 27 9 40 11 19
14 20 17 6 2 -9 -2 -27 -9 -40z m7582 10 c1 -7 1 -19 0 -26 -1 -8 5 -25 14
-39 16 -23 16 -25 -2 -21 -10 2 -18 11 -18 19 0 9 -6 23 -13 31 -7 9 -10 23
-6 32 7 19 23 21 25 4z m149 3 c0 -13 -26 -32 -33 -24 -8 7 11 33 24 33 5 0 9
-4 9 -9z m-1275 -41 c19 -21 15 -36 -8 -27 -15 6 -30 47 -18 47 5 0 16 -9 26
-20z m755 -50 c0 -8 -9 -1 -20 15 -11 17 -20 35 -20 40 1 16 40 -38 40 -55z
m-150 36 c0 -2 3 -11 6 -20 9 -23 -13 -20 -26 4 -9 16 -8 20 5 20 8 0 15 -2
15 -4z m-8440 -36 c0 -12 -7 -35 -16 -52 -22 -43 -45 -203 -33 -235 12 -33 12
-103 -2 -141 -9 -26 -6 -38 20 -87 34 -64 43 -153 17 -174 -11 -9 -13 -1 -14
48 -1 39 -8 74 -22 103 -15 30 -21 58 -19 93 1 28 2 68 1 90 -4 120 -1 218 7
233 25 50 41 95 41 117 0 14 5 25 10 25 6 0 10 -9 10 -20z m8350 -12 c0 -6 -7
-5 -15 2 -8 7 -15 17 -15 22 0 6 7 5 15 -2 8 -7 15 -17 15 -22z m-560 2 c0 -5
-2 -10 -4 -10 -3 0 -8 5 -11 10 -3 6 -1 10 4 10 6 0 11 -4 11 -10z m-6500 -20
c0 -5 -4 -10 -10 -10 -5 0 -10 5 -10 10 0 6 5 10 10 10 6 0 10 -4 10 -10z
m6555 -10 c-3 -5 -13 -10 -21 -10 -8 0 -14 5 -14 10 0 6 9 10 21 10 11 0 17
-4 14 -10z m190 -10 c3 -5 1 -10 -4 -10 -6 0 -11 5 -11 10 0 6 2 10 4 10 3 0
8 -4 11 -10z m-6392 -40 c-4 -14 0 -20 11 -20 10 0 13 -6 10 -15 -4 -8 -12
-15 -20 -15 -8 0 -11 6 -7 17 5 12 2 15 -8 11 -10 -4 -14 4 -16 28 -1 30 1 33
17 24 12 -6 16 -17 13 -30z m-183 -10 c0 -5 -5 -10 -11 -10 -5 0 -7 5 -4 10 3
6 8 10 11 10 2 0 4 -4 4 -10z m120 -35 c0 -8 -4 -15 -10 -15 -5 0 -10 7 -10
15 0 8 5 15 10 15 6 0 10 -7 10 -15z m6280 5 c0 -5 -2 -10 -4 -10 -3 0 -8 5
-11 10 -3 6 -1 10 4 10 6 0 11 -4 11 -10z m-6145 -10 c3 -5 2 -10 -4 -10 -5 0
-13 5 -16 10 -3 6 -2 10 4 10 5 0 13 -4 16 -10z m7121 -47 c-11 -12 -27 13
-20 32 7 17 8 17 17 -3 6 -12 7 -25 3 -29z m308 -19 c10 -25 -1 -29 -14 -5 -6
12 -7 21 -1 21 5 0 12 -7 15 -16z m-238 -40 c1 -39 -21 -48 -28 -10 -5 25 9
62 20 51 4 -3 7 -22 8 -41z m361 -20 c-7 -7 -37 7 -37 17 0 6 9 5 21 -1 11 -7
19 -14 16 -16z m-132 -4 c3 -5 1 -10 -4 -10 -6 0 -11 5 -11 10 0 6 2 10 4 10
3 0 8 -4 11 -10z m-1148 -186 c-4 -4 -14 1 -22 12 -22 29 -18 41 7 17 12 -13
19 -26 15 -29z m157 -10 c9 -24 7 -28 -9 -14 -17 14 -20 30 -6 30 5 0 12 -7
15 -16z m601 -4 c10 -11 16 -22 14 -25 -7 -6 -49 24 -49 36 0 15 16 10 35 -11z
m-947 -19 c3 -8 -1 -12 -9 -9 -7 2 -15 10 -17 17 -3 8 1 12 9 9 7 -2 15 -10
17 -17z m92 -26 c20 -24 6 -28 -15 -5 -10 11 -13 20 -8 20 6 0 16 -7 23 -15z
m-193 -61 c-1 -20 -3 -32 -5 -25 -2 6 -12 11 -21 11 -29 0 -32 12 -10 36 28
30 37 23 36 -22z m320 -16 c-3 -8 -6 -5 -6 6 -1 11 2 17 5 13 3 -3 4 -12 1
-19z m298 -38 c3 -5 2 -10 -4 -10 -5 0 -13 5 -16 10 -3 6 -2 10 4 10 5 0 13
-4 16 -10z m721 -45 c20 -30 17 -36 -13 -24 -14 5 -23 17 -23 29 0 27 16 25
36 -5z m174 -26 c0 -6 -4 -7 -10 -4 -5 3 -10 11 -10 16 0 6 5 7 10 4 6 -3 10
-11 10 -16z m-1271 -82 l11 -32 -25 28 c-28 31 -32 49 -11 41 8 -3 19 -20 25
-37z m1321 18 c20 -24 6 -28 -15 -5 -10 11 -13 20 -8 20 6 0 16 -7 23 -15z
m-9309 -55 c34 -32 40 -43 30 -53 -10 -9 -17 -7 -33 13 -11 14 -31 37 -44 53
-39 43 -2 34 47 -13z m8499 8 c11 -18 20 -36 20 -40 0 -8 -40 2 -41 11 -5 28
-7 61 -3 61 2 0 13 -15 24 -32z m-360 -3 c7 -8 8 -15 2 -15 -5 0 -15 7 -22 15
-7 8 -8 15 -2 15 5 0 15 -7 22 -15z m1077 -7 c-3 -8 -6 -5 -6 6 -1 11 2 17 5
13 3 -3 4 -12 1 -19z m-1027 -28 c6 -11 7 -20 2 -20 -10 0 -32 21 -32 32 0 16
19 8 30 -12z m-663 -46 c-9 -9 -28 6 -21 18 4 6 10 6 17 -1 6 -6 8 -13 4 -17z
m483 -49 c7 -9 10 -18 7 -22 -8 -7 -37 15 -37 28 0 14 16 11 30 -6z m300 -33
c0 -15 -2 -15 -10 -2 -13 20 -13 33 0 25 6 -3 10 -14 10 -23z m-336 -6 c-7
-18 -32 -28 -39 -16 -3 5 3 13 12 19 25 14 33 13 27 -3z m766 -11 c0 -8 -4
-15 -10 -15 -5 0 -10 7 -10 15 0 8 5 15 10 15 6 0 10 -7 10 -15z m521 -12 c13
-16 12 -17 -3 -4 -10 7 -18 15 -18 17 0 8 8 3 21 -13z m-1241 -33 c0 -5 -2
-10 -4 -10 -3 0 -8 5 -11 10 -3 6 -1 10 4 10 6 0 11 -4 11 -10z m275 -68 c6
-16 -26 0 -44 22 -11 13 -9 13 13 3 14 -7 28 -18 31 -25z m265 -103 c0 -5 -4
-9 -10 -9 -5 0 -10 7 -10 16 0 8 5 12 10 9 6 -3 10 -10 10 -16z m-8163 -61
c-3 -8 -6 -5 -6 6 -1 11 2 17 5 13 3 -3 4 -12 1 -19z m8028 1 c11 -17 -1 -21
-15 -4 -8 9 -8 15 -2 15 6 0 14 -5 17 -11z m-8015 -51 c0 -4 -9 -3 -20 4 -11
7 -20 19 -20 27 0 11 5 10 20 -4 11 -10 20 -22 20 -27z m8375 2 c3 -6 0 -10
-7 -10 -15 0 -38 19 -38 32 0 10 36 -8 45 -22z m-680 0 c3 -5 1 -10 -4 -10 -6
0 -11 5 -11 10 0 6 2 10 4 10 3 0 8 -4 11 -10z m460 -160 c3 -5 1 -10 -4 -10
-6 0 -11 5 -11 10 0 6 2 10 4 10 3 0 8 -4 11 -10z m-285 -15 c19 -23 8 -25
-14 -4 -11 11 -15 19 -9 19 6 0 16 -7 23 -15z m130 -27 c0 -13 -23 -5 -28 10
-2 7 2 10 12 6 9 -3 16 -11 16 -16z m171 -95 c13 -16 12 -17 -3 -4 -17 13 -22
21 -14 21 2 0 10 -8 17 -17z m43 -29 c5 -14 4 -15 -9 -4 -17 14 -19 20 -6 20
5 0 12 -7 15 -16z m314 -3 c3 -8 -1 -12 -9 -9 -7 2 -15 10 -17 17 -3 8 1 12 9
9 7 -2 15 -10 17 -17z m-763 -91 c3 -5 1 -10 -4 -10 -6 0 -11 5 -11 10 0 6 2
10 4 10 3 0 8 -4 11 -10z m765 -32 c0 -12 -14 -10 -28 4 -19 19 -14 29 8 16
11 -7 20 -16 20 -20z m-495 2 c3 -5 2 -10 -4 -10 -5 0 -13 5 -16 10 -3 6 -2
10 4 10 5 0 13 -4 16 -10z m328 -92 c7 -25 3 -33 -12 -23 -13 8 -15 45 -2 45
5 0 11 -10 14 -22z m-523 -30 c0 -16 -3 -19 -11 -11 -6 6 -8 16 -5 22 11 17
16 13 16 -11z m20 -108 c0 -5 -4 -10 -10 -10 -5 0 -10 5 -10 10 0 6 5 10 10
10 6 0 10 -4 10 -10z m855 0 c3 -5 2 -10 -4 -10 -5 0 -13 5 -16 10 -3 6 -2 10
4 10 5 0 13 -4 16 -10z m190 -10 c3 -6 -1 -13 -10 -16 -19 -8 -30 0 -20 15 8
14 22 14 30 1z m-910 -47 c22 -20 33 -31 24 -25 -9 7 -31 9 -54 5 -34 -5 -38
-4 -32 11 4 10 7 24 7 32 0 21 11 17 55 -23z m285 -44 c0 -6 -4 -7 -10 -4 -5
3 -10 11 -10 16 0 6 5 7 10 4 6 -3 10 -11 10 -16z m-665 1 c3 -5 2 -10 -4 -10
-5 0 -13 5 -16 10 -3 6 -2 10 4 10 5 0 13 -4 16 -10z m585 -91 c0 -6 -4 -7
-10 -4 -5 3 -10 11 -10 16 0 6 5 7 10 4 6 -3 10 -11 10 -16z m-535 -9 c3 -5 1
-10 -4 -10 -6 0 -11 5 -11 10 0 6 2 10 4 10 3 0 8 -4 11 -10z m-8408 -32 c-3
-8 -6 -5 -6 6 -1 11 2 17 5 13 3 -3 4 -12 1 -19z m9163 -119 c0 -11 -4 -17
-10 -14 -5 3 -10 15 -10 26 0 11 5 17 10 14 6 -3 10 -15 10 -26z m-201 -13
c19 -23 -4 -28 -24 -6 -15 17 -16 20 -3 20 9 0 21 -6 27 -14z m-179 -17 c0 -6
-4 -7 -10 -4 -5 3 -10 11 -10 16 0 6 5 7 10 4 6 -3 10 -11 10 -16z m635 -149
c3 -5 1 -10 -4 -10 -6 0 -11 5 -11 10 0 6 2 10 4 10 3 0 8 -4 11 -10z m120 0
c3 -5 -1 -10 -9 -10 -8 0 -18 5 -21 10 -3 6 1 10 9 10 8 0 18 -4 21 -10z
m-596 -9 c7 -5 12 -14 9 -21 -2 -7 -10 -4 -22 9 -19 21 -12 28 13 12z m582
-68 c13 -16 12 -17 -3 -4 -10 7 -18 15 -18 17 0 8 8 3 21 -13z m-731 -78 c7
-9 10 -19 6 -22 -8 -9 -38 9 -44 25 -5 17 23 15 38 -3z m865 -106 c12 -19 -5
-23 -22 -6 -16 16 -16 17 -1 17 9 0 20 -5 23 -11z m-889 -56 c-7 -7 -26 7 -26
19 0 6 6 6 15 -2 9 -7 13 -15 11 -17z m404 -25 c0 -6 -7 -5 -15 2 -8 7 -15 17
-15 22 0 6 7 5 15 -2 8 -7 15 -17 15 -22z m-695 -9 c11 -17 -1 -21 -15 -4 -8
9 -8 15 -2 15 6 0 14 -5 17 -11z m-10561 -25 c9 -24 2 -26 -12 -4 -7 11 -8 20
-3 20 5 0 12 -7 15 -16z m10730 -30 c5 -14 4 -15 -9 -4 -17 14 -19 20 -6 20 5
0 12 -7 15 -16z m506 1 c7 -8 8 -15 2 -15 -5 0 -15 7 -22 15 -7 8 -8 15 -2 15
5 0 15 -7 22 -15z m-120 -30 c7 -9 8 -15 2 -15 -5 0 -12 7 -16 15 -3 8 -4 15
-2 15 2 0 9 -7 16 -15z m229 -219 c9 -11 8 -15 -4 -20 -16 -6 -55 13 -55 26 0
14 47 9 59 -6z m186 -26 c3 -5 1 -10 -4 -10 -6 0 -11 5 -11 10 0 6 2 10 4 10
3 0 8 -4 11 -10z m-550 -41 c11 -17 -1 -21 -15 -4 -8 9 -8 15 -2 15 6 0 14 -5
17 -11z m540 -56 c18 -14 18 -15 2 -9 -10 3 -23 6 -28 6 -5 0 -9 5 -9 10 0 14
12 12 35 -7z m-485 -33 c0 -5 -2 -10 -4 -10 -3 0 -8 5 -11 10 -3 6 -1 10 4 10
6 0 11 -4 11 -10z m195 -59 c-3 -6 -11 -11 -16 -11 -5 0 -4 6 3 14 14 16 24
13 13 -3z m-240 -1 c3 -5 1 -10 -4 -10 -6 0 -11 5 -11 10 0 6 2 10 4 10 3 0 8
-4 11 -10z m-135 -21 c0 -6 -4 -7 -10 -4 -5 3 -10 11 -10 16 0 6 5 7 10 4 6
-3 10 -11 10 -16z m-649 -26 c-9 -16 -10 -14 -11 12 0 21 3 26 11 18 8 -8 8
-16 0 -30z m1154 -111 c-6 -7 -35 18 -35 31 0 5 9 2 20 -8 11 -10 18 -20 15
-23z m-680 -32 c3 -5 2 -10 -4 -10 -5 0 -13 5 -16 10 -3 6 -2 10 4 10 5 0 13
-4 16 -10z m435 -25 c11 -13 10 -14 -4 -9 -9 3 -16 10 -16 15 0 13 6 11 20 -6z
m325 5 c3 -5 1 -10 -4 -10 -6 0 -11 5 -11 10 0 6 2 10 4 10 3 0 8 -4 11 -10z
m-595 -4 c0 -3 -4 -8 -10 -11 -5 -3 -10 -1 -10 4 0 6 5 11 10 11 6 0 10 -2 10
-4z m595 -76 c3 -5 2 -10 -4 -10 -5 0 -13 5 -16 10 -3 6 -2 10 4 10 5 0 13 -4
16 -10z m-446 -76 c3 -16 1 -17 -13 -5 -19 16 -21 34 -3 29 6 -3 14 -13 16
-24z m101 -44 c8 -5 11 -12 7 -16 -4 -4 -15 0 -24 9 -18 18 -8 23 17 7z
m-1076 -216 c4 -10 1 -14 -6 -12 -15 5 -23 28 -10 28 5 0 13 -7 16 -16z m1391
-40 c20 -15 20 -16 -4 -12 -14 2 -26 9 -29 16 -5 16 9 15 33 -4z m-1381 -59
c4 -13 2 -14 -14 -5 -23 13 -26 20 -6 20 8 0 16 -7 20 -15z m-54 -15 c0 -5 -5
-10 -11 -10 -5 0 -7 5 -4 10 3 6 8 10 11 10 2 0 4 -4 4 -10z m1280 -41 c0 -6
-4 -7 -10 -4 -5 3 -10 11 -10 16 0 6 5 7 10 4 6 -3 10 -11 10 -16z m-475 -99
c18 -20 15 -38 -4 -25 -15 9 -33 45 -23 45 5 0 17 -9 27 -20z m92 -2 c-3 -8
-6 -5 -6 6 -1 11 2 17 5 13 3 -3 4 -12 1 -19z m758 -198 c3 -5 1 -10 -4 -10
-6 0 -11 5 -11 10 0 6 2 10 4 10 3 0 8 -4 11 -10z m-25 -90 c0 -5 -2 -10 -4
-10 -3 0 -8 5 -11 10 -3 6 -1 10 4 10 6 0 11 -4 11 -10z m-2153 -79 c0 -11 -5
-18 -9 -15 -4 3 -5 11 -1 19 7 21 12 19 10 -4z m1567 -37 c10 -25 -1 -29 -14
-5 -6 12 -7 21 -1 21 5 0 12 -7 15 -16z m666 -94 c0 -5 -2 -10 -4 -10 -3 0 -8
5 -11 10 -3 6 -1 10 4 10 6 0 11 -4 11 -10z m-2451 -94 c-5 -17 -14 -32 -19
-34 -6 -2 -10 -10 -10 -18 0 -8 -4 -14 -9 -14 -4 0 -13 -15 -19 -32 l-10 -33
-1 37 c-1 20 4 40 10 44 8 5 8 8 0 14 -9 5 -8 14 2 33 8 15 18 23 22 19 5 -4
6 0 2 10 -8 22 2 29 23 16 14 -9 16 -17 9 -42z m2151 -37 c0 -5 -4 -9 -10 -9
-5 0 -10 7 -10 16 0 8 5 12 10 9 6 -3 10 -10 10 -16z m-2200 -129 c0 -4 -6
-13 -14 -19 -17 -14 -29 0 -20 22 5 15 34 13 34 -3z m2160 -30 c0 -5 -2 -10
-4 -10 -3 0 -8 5 -11 10 -3 6 -1 10 4 10 6 0 11 -4 11 -10z m-1815 -171 c11
-17 -1 -21 -15 -4 -8 9 -8 15 -2 15 6 0 14 -5 17 -11z m1901 -86 c-7 -7 -26 7
-26 19 0 6 6 6 15 -2 9 -7 13 -15 11 -17z m-2080 -70 c-7 -7 -26 7 -26 19 0 6
6 6 15 -2 9 -7 13 -15 11 -17z m1952 -34 c2 -9 -7 -14 -25 -15 -16 -1 -22 1
-15 3 6 3 12 11 12 20 0 18 24 12 28 -8z m-1898 -14 c7 -8 8 -15 2 -15 -5 0
-15 7 -22 15 -7 8 -8 15 -2 15 5 0 15 -7 22 -15z m2080 -43 c-7 -3 -19 3 -28
13 -16 15 -15 16 12 4 15 -7 23 -15 16 -17z m-240 -274 c0 -6 -7 -5 -15 2 -8
7 -15 17 -15 22 0 6 7 5 15 -2 8 -7 15 -17 15 -22z m-519 -15 c13 -16 12 -17
-3 -4 -10 7 -18 15 -18 17 0 8 8 3 21 -13z m-8567 -62 c-5 -5 -54 47 -54 57 0
3 13 -7 30 -23 16 -16 27 -31 24 -34z m7211 39 c3 -5 1 -10 -4 -10 -6 0 -11 5
-11 10 0 6 2 10 4 10 3 0 8 -4 11 -10z m-15 -102 c0 -13 -23 -5 -28 10 -2 7 2
10 12 6 9 -3 16 -11 16 -16z m890 -49 c0 -5 -4 -9 -10 -9 -5 0 -10 7 -10 16 0
8 5 12 10 9 6 -3 10 -10 10 -16z m850 -119 c8 -5 11 -12 7 -16 -4 -4 -15 0
-24 9 -18 18 -8 23 17 7z m170 -231 c0 -5 -4 -9 -10 -9 -5 0 -10 7 -10 16 0 8
5 12 10 9 6 -3 10 -10 10 -16z m-2930 -320 c0 -5 -4 -9 -10 -9 -5 0 -10 7 -10
16 0 8 5 12 10 9 6 -3 10 -10 10 -16z m-380 -29 c0 -5 -2 -10 -4 -10 -3 0 -8
5 -11 10 -3 6 -1 10 4 10 6 0 11 -4 11 -10z m-7400 -92 c0 -16 -3 -19 -11 -11
-6 6 -8 16 -5 22 11 17 16 13 16 -11z m8555 -49 c11 -17 -1 -21 -15 -4 -8 9
-8 15 -2 15 6 0 14 -5 17 -11z m2392 -25 c-3 -3 -12 -4 -19 -1 -8 3 -5 6 6 6
11 1 17 -2 13 -5z m-822 -75 c11 -17 -1 -21 -15 -4 -8 9 -8 15 -2 15 6 0 14
-5 17 -11z m-2485 -141 c0 -6 -7 -5 -15 2 -8 7 -15 17 -15 22 0 6 7 5 15 -2 8
-7 15 -17 15 -22z m251 -45 c13 -16 12 -17 -3 -4 -17 13 -22 21 -14 21 2 0 10
-8 17 -17z m1799 -118 c10 -12 10 -15 -4 -15 -9 0 -16 7 -16 15 0 8 2 15 4 15
2 0 9 -7 16 -15z m-1270 -141 c0 -8 -4 -12 -10 -9 -5 3 -10 10 -10 16 0 5 5 9
10 9 6 0 10 -7 10 -16z"/>
<path d="M4040 11685 c0 -8 5 -15 10 -15 6 0 10 7 10 15 0 8 -4 15 -10 15 -5
0 -10 -7 -10 -15z"/>
<path d="M4191 11644 c0 -11 3 -14 6 -6 3 7 2 16 -1 19 -3 4 -6 -2 -5 -13z"/>
<path d="M2930 11611 c0 -6 5 -13 10 -16 6 -3 10 1 10 9 0 9 -4 16 -10 16 -5
0 -10 -4 -10 -9z"/>
<path d="M2770 11520 c6 -11 13 -20 16 -20 2 0 0 9 -6 20 -6 11 -13 20 -16 20
-2 0 0 -9 6 -20z"/>
<path d="M4808 11502 c8 -5 13 -15 12 -23 -4 -26 0 -40 9 -35 13 9 -2 59 -20
64 -11 3 -11 2 -1 -6z"/>
<path d="M2656 11455 c4 -9 11 -14 16 -13 15 5 11 23 -6 26 -11 2 -14 -2 -10
-13z"/>
<path d="M2610 11430 c19 -13 30 -13 30 0 0 6 -10 10 -22 10 -19 0 -20 -2 -8
-10z"/>
<path d="M2442 11229 c2 -7 10 -15 17 -17 8 -3 12 1 9 9 -2 7 -10 15 -17 17
-8 3 -12 -1 -9 -9z"/>
<path d="M2240 11130 c0 -5 4 -10 9 -10 6 0 13 5 16 10 3 6 -1 10 -9 10 -9 0
-16 -4 -16 -10z"/>
<path d="M2236 11095 c-3 -8 -1 -15 4 -15 6 0 10 7 10 15 0 8 -2 15 -4 15 -2
0 -6 -7 -10 -15z"/>
<path d="M2305 11089 c-10 -15 3 -25 16 -12 7 7 7 13 1 17 -6 3 -14 1 -17 -5z"/>
<path d="M2236 11054 c-9 -22 3 -32 14 -14 12 19 12 30 1 30 -5 0 -12 -7 -15
-16z"/>
<path d="M2320 10955 c0 -8 5 -15 10 -15 6 0 10 7 10 15 0 8 -4 15 -10 15 -5
0 -10 -7 -10 -15z"/>
<path d="M2204 10949 c-3 -6 -1 -16 5 -22 8 -8 11 -5 11 11 0 24 -5 28 -16 11z"/>
<path d="M2172 10878 c-7 -7 -11 -23 -11 -37 l2 -26 4 25 c3 14 10 31 15 38
13 15 6 16 -10 0z"/>
<path d="M2170 10753 c0 -14 19 -38 25 -32 8 8 -5 39 -16 39 -5 0 -9 -3 -9 -7z"/>
<path d="M6300 10721 c0 -22 25 -39 38 -27 8 8 -10 38 -26 44 -7 2 -12 -6 -12
-17z"/>
<path d="M7702 10663 c2 -21 9 -29 27 -31 16 -3 21 0 17 10 -3 7 -9 21 -12 31
-10 29 -36 21 -32 -10z"/>
<path d="M2084 10626 c-6 -16 12 -56 25 -56 17 0 18 12 4 41 -16 33 -21 35
-29 15z"/>
<path d="M2043 10485 c-8 -22 6 -33 17 -15 13 20 12 30 0 30 -6 0 -13 -7 -17
-15z"/>
<path d="M2072 10410 c-7 -12 -8 -21 -2 -25 13 -8 30 3 30 20 0 23 -15 25 -28
5z"/>
<path d="M2190 10419 c0 -5 5 -7 10 -4 6 3 10 8 10 11 0 2 -4 4 -10 4 -5 0
-10 -5 -10 -11z"/>
<path d="M2190 10246 c0 -9 7 -16 16 -16 9 0 14 5 12 12 -6 18 -28 21 -28 4z"/>
<path d="M2126 10203 c8 -33 12 -39 20 -30 9 9 -5 57 -16 57 -6 0 -8 -11 -4
-27z"/>
<path d="M9330 10170 c0 -5 5 -10 11 -10 5 0 7 5 4 10 -3 6 -8 10 -11 10 -2 0
-4 -4 -4 -10z"/>
<path d="M2240 10110 c0 -5 5 -10 10 -10 6 0 10 5 10 10 0 6 -4 10 -10 10 -5
0 -10 -4 -10 -10z"/>
<path d="M2144 9998 c7 -45 21 -67 33 -54 4 4 3 10 -2 14 -6 4 -10 13 -11 20
-1 6 -2 23 -2 37 -1 14 -7 25 -13 25 -8 0 -9 -14 -5 -42z"/>
<path d="M3947 10034 c-8 -8 3 -34 14 -34 5 0 9 9 9 20 0 19 -11 26 -23 14z"/>
<path d="M2200 9943 c0 -5 4 -15 10 -23 11 -18 25 -7 17 15 -6 15 -27 21 -27
8z"/>
<path d="M7077 9913 c-4 -3 -7 -11 -7 -17 0 -6 5 -5 12 2 6 6 9 14 7 17 -3 3
-9 2 -12 -2z"/>
<path d="M2310 9816 c0 -9 5 -16 10 -16 6 0 10 4 10 9 0 6 -4 13 -10 16 -5 3
-10 -1 -10 -9z"/>
<path d="M2250 9740 c0 -18 4 -29 10 -25 6 3 10 15 10 25 0 10 -4 22 -10 25
-6 4 -10 -7 -10 -25z"/>
<path d="M2460 9760 c0 -5 5 -10 10 -10 6 0 10 5 10 10 0 6 -4 10 -10 10 -5 0
-10 -4 -10 -10z"/>
<path d="M2390 9744 c0 -8 5 -12 10 -9 6 4 8 11 5 16 -9 14 -15 11 -15 -7z"/>
<path d="M2305 9739 c-10 -15 3 -25 16 -12 7 7 7 13 1 17 -6 3 -14 1 -17 -5z"/>
<path d="M2266 9672 c-2 -4 1 -18 8 -31 15 -27 28 -15 19 17 -5 22 -18 29 -27
14z"/>
<path d="M2332 9659 c2 -7 10 -15 17 -17 8 -3 12 1 9 9 -2 7 -10 15 -17 17 -8
3 -12 -1 -9 -9z"/>
<path d="M2190 9650 c0 -5 5 -10 10 -10 6 0 10 5 10 10 0 6 -4 10 -10 10 -5 0
-10 -4 -10 -10z"/>
<path d="M2234 9635 c-12 -26 -3 -52 15 -41 6 4 9 19 7 33 -7 34 -9 35 -22 8z"/>
<path d="M2452 9610 c0 -14 2 -19 5 -12 2 6 2 18 0 25 -3 6 -5 1 -5 -13z"/>
<path d="M2340 9598 c1 -14 34 -58 44 -58 15 0 4 29 -13 35 -12 4 -18 12 -14
21 3 7 0 14 -6 14 -6 0 -11 -6 -11 -12z"/>
<path d="M2320 9571 c0 -6 4 -13 10 -16 6 -3 7 1 4 9 -7 18 -14 21 -14 7z"/>
<path d="M2495 9509 c-10 -15 0 -21 27 -17 l23 3 -22 13 c-15 8 -24 9 -28 1z"/>
<path d="M2406 9473 c-11 -11 -6 -23 9 -23 8 0 15 4 15 9 0 13 -16 22 -24 14z"/>
<path d="M2356 9405 c-3 -9 0 -15 9 -15 8 0 15 7 15 15 0 8 -4 15 -9 15 -5 0
-11 -7 -15 -15z"/>
<path d="M2491 9364 c0 -11 3 -14 6 -6 3 7 2 16 -1 19 -3 4 -6 -2 -5 -13z"/>
<path d="M2458 9353 c7 -3 16 -2 19 1 4 3 -2 6 -13 5 -11 0 -14 -3 -6 -6z"/>
<path d="M2705 9350 c-3 -5 -1 -10 4 -10 6 0 11 5 11 10 0 6 -2 10 -4 10 -3 0
-8 -4 -11 -10z"/>
<path d="M2810 9334 c0 -8 5 -12 10 -9 6 3 10 10 10 16 0 5 -4 9 -10 9 -5 0
-10 -7 -10 -16z"/>
<path d="M2514 9285 c3 -9 6 -25 6 -36 0 -12 5 -17 16 -12 22 8 14 57 -10 61
-14 3 -17 0 -12 -13z"/>
<path d="M2630 9231 c0 -12 5 -21 10 -21 6 0 10 6 10 14 0 8 -4 18 -10 21 -5
3 -10 -3 -10 -14z"/>
<path d="M2316 9227 c3 -10 9 -15 12 -12 3 3 0 11 -7 18 -10 9 -11 8 -5 -6z"/>
<path d="M2567 9233 c-11 -10 -8 -20 8 -27 10 -4 15 1 15 14 0 20 -11 26 -23
13z"/>
<path d="M2811 9214 c0 -11 3 -14 6 -6 3 7 2 16 -1 19 -3 4 -6 -2 -5 -13z"/>
<path d="M10385 9197 c-4 -10 -5 -21 -1 -24 10 -10 18 4 13 24 -4 17 -4 17
-12 0z"/>
<path d="M2720 9175 c0 -8 7 -15 15 -15 8 0 15 7 15 15 0 8 -7 15 -15 15 -8 0
-15 -7 -15 -15z"/>
<path d="M2530 9161 c0 -11 9 -25 21 -31 19 -11 20 -9 17 17 -4 34 -38 46 -38
14z"/>
<path d="M2630 9160 c0 -19 3 -21 12 -12 9 9 9 15 0 24 -9 9 -12 7 -12 -12z"/>
<path d="M2730 9060 c-12 -8 -11 -10 8 -10 12 0 22 5 22 10 0 13 -11 13 -30 0z"/>
<path d="M10372 9061 c4 -13 18 -16 19 -4 0 4 -5 9 -11 12 -7 2 -11 -2 -8 -8z"/>
<path d="M2671 9008 c-5 -13 -7 -26 -5 -30 8 -13 34 4 34 22 0 29 -19 34 -29
8z"/>
<path d="M2740 9011 c0 -10 19 -25 25 -20 1 2 -3 10 -11 17 -8 7 -14 8 -14 3z"/>
<path d="M6789 8926 c-75 -37 -144 -79 -159 -97 -3 -3 -26 -20 -52 -38 -27
-17 -48 -36 -48 -41 0 -6 -7 -10 -15 -10 -10 0 -15 -9 -14 -27 0 -27 1 -27 11
-6 10 21 58 39 58 22 0 -5 5 -9 11 -9 6 0 9 9 6 20 -4 17 -1 19 19 14 18 -5
24 -2 24 10 0 9 -5 16 -11 16 -5 0 -7 5 -4 10 3 6 16 10 28 10 18 0 19 -2 7
-10 -12 -8 -9 -10 13 -10 15 0 27 4 27 10 0 11 69 32 82 24 10 -7 10 -1 -1 29
-9 23 -7 25 14 22 13 -1 23 1 22 4 -3 13 24 50 42 56 17 5 36 33 28 41 -1 2
-41 -16 -88 -40z"/>
<path d="M2792 8951 c4 -13 18 -16 19 -4 0 4 -5 9 -11 12 -7 2 -11 -2 -8 -8z"/>
<path d="M2750 8926 c0 -9 7 -16 16 -16 17 0 14 22 -4 28 -7 2 -12 -3 -12 -12z"/>
<path d="M2932 8929 c2 -7 10 -15 17 -17 8 -3 12 1 9 9 -2 7 -10 15 -17 17 -8
3 -12 -1 -9 -9z"/>
<path d="M2710 8922 c0 -12 19 -26 26 -19 2 2 -2 10 -11 17 -9 8 -15 8 -15 2z"/>
<path d="M2840 8848 c0 -19 2 -20 10 -8 13 19 13 30 0 30 -5 0 -10 -10 -10
-22z"/>
<path d="M2915 8830 c-7 -12 2 -30 16 -30 12 0 12 27 0 35 -5 3 -12 1 -16 -5z"/>
<path d="M2877 8800 c6 -24 19 -34 27 -21 9 14 -4 41 -19 41 -8 0 -11 -8 -8
-20z"/>
<path d="M10430 8791 c0 -5 5 -13 10 -16 6 -3 10 -2 10 4 0 5 -4 13 -10 16 -5
3 -10 2 -10 -4z"/>
<path d="M2986 8772 c-3 -5 -3 -18 0 -29 4 -14 12 -19 25 -16 22 6 25 23 7 41
-14 14 -25 15 -32 4z"/>
<path d="M3150 8771 c0 -6 5 -13 10 -16 6 -3 10 1 10 9 0 9 -4 16 -10 16 -5 0
-10 -4 -10 -9z"/>
<path d="M10540 8770 c0 -5 5 -10 11 -10 5 0 7 5 4 10 -3 6 -8 10 -11 10 -2 0
-4 -4 -4 -10z"/>
<path d="M3120 8706 c0 -9 7 -16 16 -16 17 0 14 22 -4 28 -7 2 -12 -3 -12 -12z"/>
<path d="M10627 8686 c-4 -10 -5 -21 -2 -24 9 -9 17 6 13 25 -3 17 -4 17 -11
-1z"/>
<path d="M6430 8669 c-16 -14 -19 -19 -7 -15 11 3 17 0 17 -9 0 -8 5 -15 10
-15 6 0 10 14 10 30 0 17 -1 30 -2 30 -2 0 -14 -10 -28 -21z"/>
<path d="M3130 8620 c0 -5 7 -10 16 -10 8 0 12 5 9 10 -3 6 -10 10 -16 10 -5
0 -9 -4 -9 -10z"/>
<path d="M10515 8621 c-3 -5 -1 -12 5 -16 5 -3 10 1 10 9 0 18 -6 21 -15 7z"/>
<path d="M2965 8600 c3 -5 10 -10 16 -10 5 0 9 5 9 10 0 6 -7 10 -16 10 -8 0
-12 -4 -9 -10z"/>
<path d="M3040 8599 c0 -5 5 -7 10 -4 6 3 10 8 10 11 0 2 -4 4 -10 4 -5 0 -10
-5 -10 -11z"/>
<path d="M3342 8570 c0 -14 2 -19 5 -12 2 6 2 18 0 25 -3 6 -5 1 -5 -13z"/>
<path d="M3195 8560 c-4 -6 -15 -8 -26 -5 -11 4 -19 2 -19 -4 0 -14 47 -14 55
0 4 6 5 13 2 15 -3 3 -8 0 -12 -6z"/>
<path d="M3050 8516 c0 -9 5 -16 10 -16 6 0 10 4 10 9 0 6 -4 13 -10 16 -5 3
-10 -1 -10 -9z"/>
<path d="M3120 8493 c0 -22 2 -25 10 -13 13 20 13 40 0 40 -5 0 -10 -12 -10
-27z"/>
<path d="M10641 8504 c0 -11 3 -14 6 -6 3 7 2 16 -1 19 -3 4 -6 -2 -5 -13z"/>
<path d="M10595 8500 c3 -5 8 -10 11 -10 2 0 4 5 4 10 0 6 -5 10 -11 10 -5 0
-7 -4 -4 -10z"/>
<path d="M3310 8470 c0 -5 7 -10 16 -10 8 0 12 5 9 10 -3 6 -10 10 -16 10 -5
0 -9 -4 -9 -10z"/>
<path d="M10610 8449 c0 -11 5 -17 10 -14 6 3 10 13 10 21 0 8 -4 14 -10 14
-5 0 -10 -9 -10 -21z"/>
<path d="M3570 8440 c0 -5 5 -10 10 -10 6 0 10 5 10 10 0 6 -4 10 -10 10 -5 0
-10 -4 -10 -10z"/>
<path d="M3220 8431 c0 -13 26 -32 33 -24 8 7 -11 33 -24 33 -5 0 -9 -4 -9 -9z"/>
<path d="M3170 8420 c0 -25 16 -44 25 -30 4 7 0 19 -9 28 -13 14 -16 14 -16 2z"/>
<path d="M3282 8380 c-16 -26 -15 -40 2 -40 14 0 26 21 26 46 0 20 -13 17 -28
-6z"/>
<path d="M6090 8359 c-25 -23 -61 -53 -80 -67 -19 -15 -74 -67 -122 -115 -75
-74 -87 -91 -82 -112 5 -20 10 -23 34 -19 15 4 38 1 50 -6 12 -7 25 -8 29 -4
16 22 101 -15 102 -44 0 -13 2 -11 9 5 l9 23 34 -20 c19 -11 41 -18 49 -15 9
4 18 -1 22 -10 3 -10 12 -15 21 -11 8 3 18 0 22 -7 5 -7 37 -21 72 -31 35 -9
77 -26 93 -37 15 -11 32 -17 38 -14 5 3 10 1 10 -6 0 -7 3 -9 7 -6 3 4 12 -2
20 -13 8 -11 21 -20 30 -20 14 0 14 2 -1 23 -9 12 -28 40 -42 62 -15 22 -37
51 -49 65 -13 14 -31 41 -42 60 -22 41 -55 93 -64 100 -13 10 -75 137 -89 180
-7 25 -18 51 -24 59 -9 12 -8 13 3 6 10 -5 12 -4 7 3 -11 18 -17 15 -66 -29z"/>
<path d="M3367 8370 c-3 -13 0 -20 9 -20 8 0 14 9 14 20 0 11 -4 20 -9 20 -5
0 -11 -9 -14 -20z"/>
<path d="M3320 8370 c0 -5 5 -10 11 -10 5 0 7 5 4 10 -3 6 -8 10 -11 10 -2 0
-4 -4 -4 -10z"/>
<path d="M10570 8346 c0 -14 5 -26 10 -26 6 0 10 9 10 19 0 11 -4 23 -10 26
-6 4 -10 -5 -10 -19z"/>
<path d="M10601 8324 c0 -11 3 -14 6 -6 3 7 2 16 -1 19 -3 4 -6 -2 -5 -13z"/>
<path d="M3306 8301 c-4 -7 -5 -15 -2 -18 9 -9 19 4 14 18 -4 11 -6 11 -12 0z"/>
<path d="M3410 8290 c0 -5 5 -10 10 -10 6 0 10 5 10 10 0 6 -4 10 -10 10 -5 0
-10 -4 -10 -10z"/>
<path d="M3465 8260 c3 -5 8 -10 11 -10 2 0 4 5 4 10 0 6 -5 10 -11 10 -5 0
-7 -4 -4 -10z"/>
<path d="M3410 8248 c0 -18 18 -34 28 -24 3 4 -2 14 -11 23 -16 16 -17 16 -17
1z"/>
<path d="M3671 8204 c0 -11 3 -14 6 -6 3 7 2 16 -1 19 -3 4 -6 -2 -5 -13z"/>
<path d="M4426 8201 c-4 -7 -5 -15 -2 -18 9 -9 19 4 14 18 -4 11 -6 11 -12 0z"/>
<path d="M3626 8193 c-12 -12 -6 -33 9 -33 8 0 15 6 15 14 0 17 -14 28 -24 19z"/>
<path d="M4850 8190 c0 -5 5 -10 10 -10 6 0 10 5 10 10 0 6 -4 10 -10 10 -5 0
-10 -4 -10 -10z"/>
<path d="M3547 8174 c-15 -15 -6 -32 13 -27 12 3 19 10 17 16 -4 14 -21 19
-30 11z"/>
<path d="M3595 8150 c-3 -5 -1 -10 4 -10 6 0 11 5 11 10 0 6 -2 10 -4 10 -3 0
-8 -4 -11 -10z"/>
<path d="M4200 8150 c0 -5 5 -10 10 -10 6 0 10 5 10 10 0 6 -4 10 -10 10 -5 0
-10 -4 -10 -10z"/>
<path d="M3717 8070 c-4 -15 0 -20 13 -20 18 0 34 23 23 34 -13 12 -31 5 -36
-14z"/>
<path d="M3956 8081 c-4 -7 -5 -15 -2 -18 9 -9 19 4 14 18 -4 11 -6 11 -12 0z"/>
<path d="M4030 8080 c0 -5 5 -10 10 -10 6 0 10 5 10 10 0 6 -4 10 -10 10 -5 0
-10 -4 -10 -10z"/>
<path d="M3915 8040 c3 -5 8 -10 11 -10 2 0 4 5 4 10 0 6 -5 10 -11 10 -5 0
-7 -4 -4 -10z"/>
<path d="M5940 8020 c0 -5 5 -10 10 -10 6 0 10 5 10 10 0 6 -4 10 -10 10 -5 0
-10 -4 -10 -10z"/>
<path d="M3930 8013 c0 -5 5 -15 10 -23 7 -12 12 -12 22 -2 10 10 10 15 -2 22
-18 12 -30 13 -30 3z"/>
<path d="M4770 7980 c0 -5 5 -10 11 -10 5 0 7 5 4 10 -3 6 -8 10 -11 10 -2 0
-4 -4 -4 -10z"/>
<path d="M3863 7935 c-6 -14 -8 -25 -3 -25 4 0 7 -7 6 -16 0 -9 4 -19 11 -21
7 -3 11 11 11 41 -1 52 -8 57 -25 21z"/>
<path d="M3744 7938 c-4 -5 -1 -14 7 -18 14 -9 29 -4 29 10 0 13 -29 20 -36 8z"/>
<path d="M4020 7940 c0 -5 4 -10 9 -10 6 0 13 5 16 10 3 6 -1 10 -9 10 -9 0
-16 -4 -16 -10z"/>
<path d="M3705 7910 c-10 -15 37 -28 65 -17 8 3 22 8 30 10 8 3 -4 5 -27 5
-22 0 -46 3 -51 6 -6 3 -13 2 -17 -4z"/>
<path d="M3951 7876 c-11 -13 -11 -17 3 -22 26 -10 38 -1 23 20 -12 16 -14 16
-26 2z"/>
<path d="M4160 7880 c0 -5 5 -10 10 -10 6 0 10 5 10 10 0 6 -4 10 -10 10 -5 0
-10 -4 -10 -10z"/>
<path d="M4370 7865 c0 -8 5 -15 10 -15 6 0 10 7 10 15 0 8 -4 15 -10 15 -5 0
-10 -7 -10 -15z"/>
<path d="M4545 7871 c-3 -6 -2 -18 3 -27 7 -13 10 -13 20 -1 10 11 9 17 -2 26
-10 8 -16 9 -21 2z"/>
<path d="M4082 7854 c9 -9 24 -14 32 -11 27 11 17 27 -16 27 -30 0 -31 -1 -16
-16z"/>
<path d="M4030 7850 c0 -5 5 -10 10 -10 6 0 10 5 10 10 0 6 -4 10 -10 10 -5 0
-10 -4 -10 -10z"/>
<path d="M4242 7849 c2 -7 10 -15 17 -17 8 -3 12 1 9 9 -2 7 -10 15 -17 17 -8
3 -12 -1 -9 -9z"/>
<path d="M4330 7831 c0 -6 5 -13 10 -16 6 -3 10 1 10 9 0 9 -4 16 -10 16 -5 0
-10 -4 -10 -9z"/>
<path d="M4480 7810 c0 -5 5 -10 11 -10 5 0 7 5 4 10 -3 6 -8 10 -11 10 -2 0
-4 -4 -4 -10z"/>
<path d="M5025 7810 c-3 -5 -1 -10 4 -10 6 0 11 5 11 10 0 6 -2 10 -4 10 -3 0
-8 -4 -11 -10z"/>
<path d="M4425 7800 c3 -5 8 -10 11 -10 2 0 4 5 4 10 0 6 -5 10 -11 10 -5 0
-7 -4 -4 -10z"/>
<path d="M5075 7780 c-8 -13 21 -48 31 -38 3 4 -1 16 -9 28 -10 15 -17 18 -22
10z"/>
<path d="M4890 7741 c0 -5 7 -12 16 -15 22 -9 24 -8 24 9 0 8 -9 15 -20 15
-11 0 -20 -4 -20 -9z"/>
<path d="M4580 7710 c0 -5 5 -10 10 -10 6 0 10 5 10 10 0 6 -4 10 -10 10 -5 0
-10 -4 -10 -10z"/>
<path d="M4195 7700 c3 -5 8 -10 11 -10 2 0 4 5 4 10 0 6 -5 10 -11 10 -5 0
-7 -4 -4 -10z"/>
<path d="M5355 7700 c-3 -5 -1 -10 4 -10 6 0 11 5 11 10 0 6 -2 10 -4 10 -3 0
-8 -4 -11 -10z"/>
<path d="M4356 7682 c-2 -4 -1 -14 4 -22 7 -11 11 -11 24 -1 9 7 13 17 10 22
-7 11 -31 12 -38 1z"/>
<path d="M4506 7682 c-3 -6 -1 -14 5 -17 15 -10 25 3 12 16 -7 7 -13 7 -17 1z"/>
<path d="M4817 7683 c-11 -10 -8 -43 3 -43 6 0 10 11 10 25 0 26 -2 29 -13 18z"/>
<path d="M4710 7641 c0 -6 5 -13 10 -16 6 -3 10 1 10 9 0 9 -4 16 -10 16 -5 0
-10 -4 -10 -9z"/>
<path d="M4300 7630 c0 -5 7 -10 15 -10 8 0 15 5 15 10 0 6 -7 10 -15 10 -8 0
-15 -4 -15 -10z"/>
<path d="M4355 7629 c-10 -15 3 -25 16 -12 7 7 7 13 1 17 -6 3 -14 1 -17 -5z"/>
<path d="M5036 7625 c4 -8 10 -12 15 -9 14 8 10 24 -6 24 -9 0 -12 -6 -9 -15z"/>
<path d="M4480 7606 c0 -17 38 -28 46 -14 7 11 -13 28 -33 28 -7 0 -13 -6 -13
-14z"/>
<path d="M4606 7604 c-4 -10 1 -25 10 -36 10 -10 17 -35 17 -56 0 -30 6 -34 9
-5 1 5 8 13 17 20 14 11 14 12 -1 13 -18 0 -22 9 -19 41 1 9 -5 21 -12 28 -12
9 -16 8 -21 -5z"/>
<path d="M4670 7610 c0 -5 5 -10 10 -10 6 0 10 5 10 10 0 6 -4 10 -10 10 -5 0
-10 -4 -10 -10z"/>
<path d="M4816 7602 c-3 -6 -1 -14 5 -17 15 -10 25 3 12 16 -7 7 -13 7 -17 1z"/>
<path d="M4768 7585 c-8 -15 -7 -65 3 -70 13 -9 18 9 10 45 -4 19 -9 30 -13
25z"/>
<path d="M4950 7580 c0 -5 5 -10 10 -10 6 0 10 5 10 10 0 6 -4 10 -10 10 -5 0
-10 -4 -10 -10z"/>
<path d="M5115 7571 c-3 -5 -1 -12 5 -16 5 -3 10 1 10 9 0 18 -6 21 -15 7z"/>
<path d="M4467 7544 c-3 -3 -3 -12 0 -20 4 -11 9 -12 19 -3 8 6 14 15 14 20 0
10 -24 12 -33 3z"/>
<path d="M4830 7526 c0 -9 7 -16 16 -16 17 0 14 22 -4 28 -7 2 -12 -3 -12 -12z"/>
<path d="M4590 7500 c0 -30 13 -40 25 -20 8 13 -4 50 -16 50 -5 0 -9 -13 -9
-30z"/>
<path d="M4706 7481 c-8 -12 21 -34 33 -27 6 4 8 13 4 21 -6 17 -29 20 -37 6z"/>
<path d="M4955 7470 c-10 -16 16 -43 28 -31 11 11 2 41 -12 41 -5 0 -13 -5
-16 -10z"/>
<path d="M4765 7460 c-4 -6 -3 -16 3 -22 6 -6 12 -6 17 2 4 6 3 16 -3 22 -6 6
-12 6 -17 -2z"/>
<path d="M4628 7454 c-3 -3 -4 -14 -1 -24 5 -17 7 -17 20 -5 8 8 11 19 8 25
-7 11 -19 13 -27 4z"/>
<path d="M4880 7445 c0 -8 2 -15 4 -15 2 0 11 -3 20 -6 10 -4 16 -1 16 9 0 8
-7 18 -16 21 -22 9 -24 8 -24 -9z"/>
<path d="M4817 7436 c-7 -16 1 -26 20 -26 7 0 13 9 13 20 0 23 -25 27 -33 6z"/>
<path d="M4575 7420 c3 -5 15 -10 26 -10 11 0 17 5 14 10 -3 6 -15 10 -26 10
-11 0 -17 -4 -14 -10z"/>
<path d="M4723 7413 c-3 -10 -10 -21 -15 -24 -5 -3 -2 -18 6 -33 7 -15 17 -23
20 -17 4 5 2 12 -4 16 -16 10 -12 22 11 28 13 4 19 12 17 23 -4 25 -27 29 -35
7z"/>
<path d="M4820 7395 c0 -3 7 -22 15 -42 18 -42 18 -43 5 -43 -5 0 -10 7 -10
15 0 8 -7 15 -15 15 -15 0 -11 -23 7 -47 6 -8 2 -12 -14 -15 -12 -2 -24 -11
-26 -21 -5 -24 26 -33 46 -13 14 13 14 16 2 16 -8 1 1 8 20 16 19 8 43 24 53
35 19 21 19 21 -19 55 -35 30 -64 43 -64 29z"/>
<path d="M4930 7366 c0 -9 7 -16 16 -16 17 0 14 22 -4 28 -7 2 -12 -3 -12 -12z"/>
<path d="M3335 6040 c-3 -5 -1 -10 4 -10 6 0 11 5 11 10 0 6 -2 10 -4 10 -3 0
-8 -4 -11 -10z"/>
<path d="M10294 3516 c-9 -24 12 -44 28 -28 10 10 8 16 -5 29 -15 15 -17 15
-23 -1z"/>
<path d="M3973 3403 c-17 -6 -16 -48 1 -81 15 -28 50 -62 65 -62 11 0 31 46
31 74 0 38 -63 83 -97 69z"/>
<path d="M3245 2030 c3 -5 8 -10 11 -10 2 0 4 5 4 10 0 6 -5 10 -11 10 -5 0
-7 -4 -4 -10z"/>
</g>
</svg>
